<svg width="50" height="50" viewBox="0 0 50 50" fill="none" xmlns="http://www.w3.org/2000/svg">
<rect width="50" height="50" fill="white"/>
<path d="M26.936 25.8448L24.5172 35.6994H18.0968C16.8426 31.1902 13.0799 18.5584 11.766 14.4971H16.7829L19.4406 24.9191C20.0677 27.3379 20.6351 29.697 21.083 31.6381H21.8594C22.3074 29.6373 22.8449 27.1886 23.4123 24.7399L25.861 14.4971H31.8932L34.2224 24.3517C34.8197 26.9497 35.387 29.5477 35.8648 31.6381H36.4919C36.9996 29.697 37.5968 27.3379 38.224 24.9191L40.9414 14.4971H45.7492C44.4353 18.5584 40.5532 31.1902 39.2691 35.6994H32.8189L30.5792 25.8747C29.982 23.2767 29.3549 20.38 28.8472 17.9612C28.2798 20.38 27.593 23.2468 26.936 25.8448Z" fill="#181B20"/>
<path d="M14.8359 35.6395H10.3115L4 14.3143H8.52441L14.8359 35.6395Z" fill="url(#paint0_linear_3659_7764)"/>
<defs>
<linearGradient id="paint0_linear_3659_7764" x1="17.7874" y1="9.36384" x2="-4.49072" y2="19.5339" gradientUnits="userSpaceOnUse">
<stop stop-color="#A1CCA5"/>
<stop offset="1" stop-color="#0C92B4"/>
</linearGradient>
</defs>
</svg>
