<svg width="134" height="24" viewBox="0 0 134 24" fill="none" xmlns="http://www.w3.org/2000/svg">
<path d="M24.0687 13.2001L21.5304 23.6211H14.793C13.4768 18.8527 9.52834 5.49481 8.14951 1.20007H13.4141L16.2031 12.2211C16.8612 14.779 17.4566 17.2738 17.9267 19.3264H18.7414C19.2115 17.2106 19.7755 14.6211 20.371 12.0317L22.9406 1.20007H29.2707L31.715 11.6211C32.3417 14.3685 32.9371 17.1159 33.4385 19.3264H34.0966C34.6293 17.2738 35.256 14.779 35.9141 12.2211L38.7658 1.20007H43.8111C42.4322 5.49481 38.3584 18.8527 37.0109 23.6211H30.2421L27.8918 13.2317C27.2651 10.4843 26.607 7.42112 26.0743 4.86323C25.4789 7.42112 24.7581 10.4527 24.0687 13.2001Z" fill="#181B20"/>
<path d="M11.3701 23.5575H6.62305L0 1.00674H4.74707L11.3701 23.5575Z" fill="url(#paint0_linear_3655_6565)"/>
<path d="M125.022 24C118.442 24 116.06 21.9158 116.06 14.8737V13.9263C116.06 6.8842 118.442 4.79999 125.022 4.79999C131.572 4.79999 133.953 6.8842 133.953 13.9263V14.8737C133.953 21.9158 131.572 24 125.022 24ZM125.022 19.8632C128.281 19.8632 129.284 18.8526 129.284 14.4947V14.3053C129.284 9.91578 128.281 8.93683 125.022 8.93683C121.763 8.93683 120.761 9.91578 120.761 14.3053V14.4947C120.761 18.8526 121.763 19.8632 125.022 19.8632Z" fill="#181B20"/>
<path d="M107.166 19.2316V4.48421C107.166 2.62105 107.166 1.2 107.134 0H111.835C111.804 1.16842 111.804 2.62105 111.804 4.48421V19.2C111.804 21.0316 111.804 22.3263 111.835 23.6211H107.134C107.166 22.3263 107.166 21.0316 107.166 19.2316Z" fill="#181B20"/>
<path d="M94.3302 24C87.8748 24 85.3678 21.9158 85.3678 14.8737V13.9263C85.3678 6.8842 87.8747 4.79999 94.2048 4.79999C100.504 4.79999 102.885 6.8842 102.885 13.9263V15.5368H90.0683C90.2564 19.1684 91.3532 20.0526 94.3615 20.0526C97.5579 20.0526 98.31 19.2 98.31 17.1789L102.885 17.3053C102.885 22.1684 100.911 24 94.3302 24ZM94.2048 8.30525C91.4158 8.30525 90.319 9.06315 90.0997 12.4421H98.0906C97.9653 9.06315 97.0878 8.30525 94.2048 8.30525Z" fill="#181B20"/>
<path d="M66.9542 19.2316V4.48421C66.9542 2.62105 66.9542 1.2 66.9229 0H71.6234C71.5921 1.16842 71.5921 2.62105 71.5921 4.48421V12.1895H73.2529C73.8797 11.2421 74.5691 10.2632 75.3525 9.25264L78.4236 5.17895H83.8762L83.9075 5.24211C81.7766 7.76842 79.1443 11.2105 77.0134 13.9579C79.301 16.9579 82.1527 20.8737 84.3463 23.5579L84.3149 23.6211H78.7683L75.2899 18.9158C74.6318 17.9684 73.9737 17.0526 73.3783 16.1369H71.5921V19.2C71.5921 21.0316 71.5921 22.3263 71.6234 23.6211H66.9229C66.9542 22.3579 66.9542 21.0316 66.9542 19.2316Z" fill="#181B20"/>
<path d="M53.7206 24C47.1399 24 44.7582 21.9158 44.7582 14.8737V13.9263C44.7582 6.8842 47.1399 4.79999 53.7206 4.79999C60.2701 4.79999 62.6517 6.8842 62.6517 13.9263V14.8737C62.6517 21.9158 60.2701 24 53.7206 24ZM53.7206 19.8632C56.9797 19.8632 57.9825 18.8526 57.9825 14.4947V14.3053C57.9825 9.91578 56.9797 8.93683 53.7206 8.93683C50.4616 8.93683 49.4588 9.91578 49.4588 14.3053V14.4947C49.4588 18.8526 50.4616 19.8632 53.7206 19.8632Z" fill="#181B20"/>
<defs>
<linearGradient id="paint0_linear_3655_6565" x1="14.467" y1="-4.22827" x2="-8.97154" y2="6.38889" gradientUnits="userSpaceOnUse">
<stop stop-color="#A1CCA5"/>
<stop offset="1" stop-color="#0C92B4"/>
</linearGradient>
</defs>
</svg>
