<svg width="134" height="24" viewBox="0 0 134 24" fill="none" xmlns="http://www.w3.org/2000/svg">
<path d="M25.2956 13.0393L22.7878 23.2564H16.1312C14.8308 18.5813 10.9298 5.48489 9.5675 1.27422H14.7689L17.5244 12.0795C18.1746 14.5874 18.7629 17.0333 19.2273 19.0457H20.0323C20.4967 16.9714 21.054 14.4326 21.6422 11.8938L24.181 1.27422H30.4351L32.85 11.4913C33.4693 14.1849 34.0575 16.8785 34.5529 19.0457H35.2031C35.7294 17.0333 36.3486 14.5874 36.9988 12.0795L39.8162 1.27422H44.8009C43.4387 5.48489 39.4137 18.5813 38.0824 23.2564H31.3949L29.0728 13.0703C28.4536 10.3767 27.8034 7.3735 27.2771 4.86567C26.6888 7.3735 25.9767 10.3457 25.2956 13.0393Z" fill="#F5F5F5"/>
<path d="M12.7502 23.194H8.05882L1.51585 1.08464H6.20628L12.7502 23.194Z" fill="url(#paint0_linear_3655_6565)"/>
<path d="M125.037 23.6279C118.536 23.6279 116.182 21.5844 116.182 14.6802V13.7514C116.182 6.84709 118.536 4.80367 125.037 4.80367C131.508 4.80367 133.861 6.84709 133.861 13.7514V14.6802C133.861 21.5844 131.508 23.6279 125.037 23.6279ZM125.037 19.572C128.257 19.572 129.248 18.5812 129.248 14.3086V14.1229C129.248 9.81933 128.257 8.85954 125.037 8.85954C121.817 8.85954 120.827 9.81933 120.827 14.1229V14.3086C120.827 18.5812 121.817 19.572 125.037 19.572Z" fill="#F5F5F5"/>
<path d="M107.395 18.9528V4.49408C107.395 2.66739 107.395 1.27415 107.364 0.097641H112.008C111.977 1.24319 111.977 2.66739 111.977 4.49408V18.9218C111.977 20.7176 111.977 21.9869 112.008 23.2563H107.364C107.395 21.9869 107.395 20.7176 107.395 18.9528Z" fill="#F5F5F5"/>
<path d="M94.7136 23.6279C88.3356 23.6279 85.8587 21.5844 85.8587 14.6802V13.7514C85.8587 6.84709 88.3356 4.80367 94.5897 4.80367C100.813 4.80367 103.166 6.84709 103.166 13.7514V15.3304H90.5029C90.6886 18.8909 91.7723 19.7578 94.7445 19.7578C97.9025 19.7578 98.6456 18.9218 98.6456 16.9403L103.166 17.0642C103.166 21.8321 101.215 23.6279 94.7136 23.6279ZM94.5897 8.24032C91.8342 8.24032 90.7506 8.98338 90.5338 12.2962H98.4289C98.305 8.98338 97.4381 8.24032 94.5897 8.24032Z" fill="#F5F5F5"/>
<path d="M67.6662 18.9528V4.49408C67.6662 2.66739 67.6662 1.27415 67.6353 0.097641H72.2794C72.2484 1.24319 72.2484 2.66739 72.2484 4.49408V12.0485H73.8894C74.5086 11.1197 75.1897 10.1599 75.9637 9.16916L78.9979 5.17522H84.3851L84.416 5.23714C82.3107 7.714 79.71 11.0887 77.6047 13.7823C79.8648 16.7236 82.6822 20.5627 84.8495 23.1944L84.8185 23.2563H79.3385L75.9018 18.6432C75.2516 17.7144 74.6015 16.8165 74.0132 15.9186H72.2484V18.9218C72.2484 20.7176 72.2484 21.9869 72.2794 23.2563H67.6353C67.6662 22.0179 67.6662 20.7176 67.6662 18.9528Z" fill="#F5F5F5"/>
<path d="M54.5916 23.6279C48.0898 23.6279 45.7368 21.5844 45.7368 14.6802V13.7514C45.7368 6.84709 48.0898 4.80367 54.5916 4.80367C61.0624 4.80367 63.4154 6.84709 63.4154 13.7514V14.6802C63.4154 21.5844 61.0624 23.6279 54.5916 23.6279ZM54.5916 19.572C57.8115 19.572 58.8022 18.5812 58.8022 14.3086V14.1229C58.8022 9.81933 57.8115 8.85954 54.5916 8.85954C51.3716 8.85954 50.3809 9.81933 50.3809 14.1229V14.3086C50.3809 18.5812 51.3716 19.572 54.5916 19.572Z" fill="#F5F5F5"/>
<defs>
<linearGradient id="paint0_linear_3655_6565" x1="15.8102" y1="-4.04789" x2="-7.28709" y2="6.49614" gradientUnits="userSpaceOnUse">
<stop stop-color="#A1CCA5"/>
<stop offset="1" stop-color="#0C92B4"/>
</linearGradient>
</defs>
</svg>
