<svg width="90" height="28" viewBox="0 0 90 28" fill="none" xmlns="http://www.w3.org/2000/svg">
<g clip-path="url(#clip0_3784_15553)">
<path d="M74.8526 -0.0115461C74.9116 -0.0117783 74.9707 -0.0120106 75.0315 -0.0122499C75.1555 -0.0126007 75.2795 -0.012767 75.4036 -0.0127557C75.5911 -0.0129082 75.7786 -0.0141783 75.9662 -0.0154986C76.576 -0.0174272 77.1613 -0.0118251 77.7568 0.13974C77.6636 0.338537 77.5581 0.510108 77.4264 0.685461C77.3898 0.734306 77.3533 0.783151 77.3156 0.833476C77.2586 0.908902 77.2586 0.908902 77.2004 0.985852C77.1434 1.06209 77.1434 1.06209 77.0852 1.13986C76.8027 1.51575 76.8027 1.51575 76.644 1.67495C76.4587 1.69388 76.4587 1.69388 76.2229 1.69649C76.1363 1.69808 76.0498 1.69967 75.9606 1.70131C75.9146 1.70195 75.8687 1.70258 75.8214 1.70324C72.5859 1.75421 69.6064 2.88435 67.3244 5.23386C66.4717 6.13964 65.8189 7.17201 65.3075 8.30429C65.2784 8.36846 65.2784 8.36846 65.2488 8.43394C65.0197 8.95043 64.8453 9.47338 64.6989 10.0183C64.6851 10.0693 64.6713 10.1203 64.657 10.1728C64.4429 11.0132 64.3779 11.8529 64.3816 12.718C64.3818 12.7888 64.3818 12.7888 64.382 12.861C64.3854 13.6171 64.433 14.3379 64.612 15.0732C64.6299 15.15 64.6299 15.15 64.6482 15.2285C64.8327 16.0058 65.0976 16.7282 65.4466 17.4458C65.468 17.4901 65.4894 17.5345 65.5115 17.5801C66.0169 18.6114 66.67 19.4826 67.4635 20.3069C67.5535 20.4037 67.5535 20.4037 67.6453 20.5026C69.5507 22.5022 72.4052 23.6636 75.1454 23.7404C78.4714 23.7857 81.4134 22.6182 83.8163 20.32C85.4608 18.6143 86.4456 16.4273 86.7982 14.0962C86.8119 14.0084 86.8119 14.0084 86.8259 13.9188C87.1693 11.2135 86.3217 8.3099 84.6823 6.15023C84.4489 5.85712 84.201 5.57854 83.9467 5.30364C83.9135 5.26732 83.8804 5.231 83.8462 5.19358C82.7696 4.02436 81.3834 3.07633 79.8843 2.54805C79.7042 2.44256 79.7042 2.44256 79.618 2.26129C79.6006 2.18294 79.5831 2.10459 79.5651 2.02387C79.5473 1.95106 79.5473 1.95106 79.5291 1.87679C79.4896 1.71399 79.4532 1.55073 79.4173 1.3871C79.4046 1.33142 79.392 1.27574 79.379 1.21837C79.3611 1.13755 79.3611 1.13755 79.3428 1.05509C79.3321 1.00659 79.3213 0.958097 79.3102 0.908131C79.2869 0.767782 79.2869 0.767782 79.2869 0.488652C81.285 0.849779 83.1486 2.09254 84.6422 3.41951C84.706 3.47502 84.7698 3.53052 84.8356 3.5877C85.1964 3.90557 85.5202 4.2336 85.8245 4.60582C85.854 4.64085 85.8836 4.67589 85.9141 4.71199C88.2593 7.49307 89.3289 11.0344 89.0786 14.6576C88.7679 18.2038 87.0612 21.5368 84.3589 23.8496C81.8609 25.8998 78.8432 27.0207 75.6138 27.0234C75.5377 27.0235 75.5377 27.0235 75.4601 27.0236C74.6115 27.0223 73.7901 26.9713 72.9579 26.7966C72.9004 26.7847 72.8428 26.7727 72.7836 26.7603C70.4693 26.2617 68.323 25.2094 66.58 23.5943C66.437 23.4625 66.2907 23.3368 66.1421 23.2116C64.0541 21.3722 62.721 18.5543 62.2473 15.8408C62.235 15.772 62.2228 15.7032 62.2101 15.6323C62.0978 14.9375 62.0805 14.2537 62.0821 13.5511C62.0822 13.4914 62.0822 13.4318 62.0823 13.3703C62.0926 9.82176 63.4733 6.56068 65.9102 4.00548C65.9893 3.92235 66.0674 3.83826 66.1453 3.75398C68.3026 1.48308 71.7365 -0.00716402 74.8526 -0.0115461Z" fill="#F5F5F5"/>
<path d="M41.3818 1.46545C41.6091 1.57945 41.7257 1.65217 41.9013 1.82064C41.9463 1.86347 41.9913 1.90631 42.0377 1.95044C42.0852 1.99621 42.1327 2.04198 42.1817 2.08913C42.282 2.18476 42.3825 2.28035 42.4829 2.3759C42.5323 2.42299 42.5817 2.47008 42.6325 2.5186C42.8209 2.69738 43.0117 2.87321 43.2032 3.04864C43.4878 3.30958 43.7719 3.57118 44.0551 3.8337C44.1115 3.88594 44.1115 3.88594 44.169 3.93924C44.2452 4.00981 44.3213 4.08038 44.3974 4.15095C44.5861 4.32585 44.7749 4.50064 44.9636 4.67545C45.039 4.74523 45.1143 4.81501 45.1897 4.88479C45.2269 4.91934 45.2642 4.95388 45.3027 4.98947C48.3541 7.81566 48.3541 7.81566 48.4672 7.92035C48.5425 7.99007 48.6177 8.0598 48.693 8.12952C48.8823 8.3048 49.0715 8.48012 49.2607 8.6555C50.0162 9.35579 50.7749 10.0523 51.536 10.7465C51.559 7.77588 51.5819 4.80524 51.6056 1.74458C52.5466 1.74458 53.4876 1.74458 54.4571 1.74458C54.4571 6.97199 54.4571 12.1994 54.4571 17.5852C54.2212 17.4669 54.1237 17.405 53.9528 17.2232C53.7871 17.0474 53.6132 16.8864 53.4312 16.7279C53.1463 16.4797 52.8708 16.2228 52.5966 15.9628C52.1976 15.5858 51.7962 15.2117 51.3915 14.8408C51.1739 14.6412 50.9571 14.4407 50.7405 14.24C50.703 14.2052 50.6654 14.1703 50.6267 14.1345C50.5505 14.0639 50.4744 13.9933 50.3983 13.9227C50.2096 13.7479 50.0208 13.5731 49.8321 13.3983C49.7567 13.3285 49.6814 13.2587 49.606 13.1889C49.5687 13.1544 49.5314 13.1198 49.493 13.0842C47.3457 11.0954 47.3457 11.0954 47.2326 10.9907C47.1574 10.921 47.0821 10.8513 47.0068 10.7816C46.8175 10.6063 46.6283 10.431 46.4391 10.2556C46.214 10.0469 45.9888 9.83841 45.7634 9.63C45.7081 9.57879 45.7081 9.57879 45.6516 9.52655C45.5426 9.42575 45.4335 9.32505 45.3244 9.22439C45.2616 9.16637 45.1987 9.10835 45.134 9.04857C44.8828 8.82064 44.6273 8.59765 44.3725 8.37392C44.3495 11.2985 44.3265 14.2231 44.3029 17.2363C43.3389 17.2363 42.375 17.2363 41.3818 17.2363C41.3818 12.0319 41.3818 6.82754 41.3818 1.46545Z" fill="#F5F5F5"/>
<path d="M0.486816 1.74463C7.6701 1.74463 7.6701 1.74463 9.21904 3.23677C9.93042 4.00071 10.139 5.01672 10.1069 6.03843C10.0183 7.00037 9.60055 7.78595 8.90227 8.44374C8.67774 8.61913 8.44743 8.77999 8.20677 8.93222C8.27401 8.96604 8.34125 8.99987 8.41053 9.03471C9.60068 9.64431 10.4001 10.351 10.8496 11.6537C11.1093 12.5318 11.0217 13.7565 10.641 14.5846C10.6166 14.6403 10.5922 14.696 10.5671 14.7533C10.0429 15.8144 9.06597 16.4413 7.98672 16.8264C5.61117 17.6 2.84498 17.2363 0.486816 17.2363C0.486816 12.1241 0.486816 7.01181 0.486816 1.74463ZM3.47743 4.11723C3.47743 5.4759 3.47743 6.83456 3.47743 8.2344C5.17683 8.31153 5.17683 8.31153 6.60714 7.60635C7.00553 7.20664 7.10722 6.76734 7.12442 6.21943C7.10868 5.62881 6.99745 5.17072 6.56368 4.754C5.66625 4.04794 4.57066 4.11723 3.47743 4.11723ZM3.47743 10.6768C3.47743 12.0354 3.47743 13.3941 3.47743 14.7939C5.52527 14.9235 5.52527 14.9235 7.37273 14.1692C7.71996 13.8112 7.90361 13.3621 7.93347 12.8651C7.91423 12.2173 7.76919 11.7483 7.29394 11.2961C6.25368 10.4496 4.68898 10.6768 3.47743 10.6768Z" fill="#F5F5F5"/>
<path d="M20.517 1.46545C20.7256 1.53524 20.7256 1.53524 20.8102 1.67712C20.8521 1.77204 20.8521 1.77204 20.8949 1.86888C20.9278 1.94206 20.9608 2.01524 20.9947 2.09063C21.0307 2.17218 21.0667 2.25372 21.1038 2.33773C21.1843 2.51679 21.2655 2.69552 21.3469 2.87419C21.3689 2.92243 21.3908 2.97067 21.4134 3.02037C21.7053 3.65929 22.0164 4.2889 22.3252 4.91968C22.7524 5.79334 23.1721 6.66909 23.5763 7.5537C23.9129 8.28635 24.2664 9.01036 24.6204 9.73467C25.047 10.6078 25.4666 11.4827 25.8705 12.3667C26.2724 13.2416 26.6965 14.1057 27.1196 14.9704C27.3809 15.5045 27.6418 16.0389 27.8962 16.5763C27.9354 16.6587 27.9745 16.741 28.0149 16.8258C28.0978 17.0269 28.0978 17.0269 28.0978 17.2363C27.0191 17.2363 25.9404 17.2363 24.829 17.2363C24.677 16.8995 24.5249 16.5627 24.3682 16.2157C24.3212 16.1117 24.2742 16.0076 24.2257 15.9004C24.0189 15.4423 23.8141 14.9833 23.6146 14.5219C23.5805 14.4431 23.5464 14.3644 23.5113 14.2832C23.438 14.0961 23.438 14.0961 23.438 13.9565C21.4872 13.9565 19.5363 13.9565 17.5263 13.9565C17.4804 14.0947 17.4345 14.2328 17.3872 14.3752C17.3457 14.4768 17.3025 14.5777 17.2576 14.6779C17.2328 14.7335 17.208 14.7891 17.1824 14.8464C17.156 14.9051 17.1295 14.9638 17.1023 15.0242C17.0748 15.0854 17.0474 15.1466 17.0191 15.2097C16.9614 15.3383 16.9036 15.467 16.8457 15.5955C16.7568 15.7931 16.6682 15.9908 16.5797 16.1886C16.5235 16.3137 16.4673 16.4387 16.4111 16.5638C16.3845 16.6232 16.3579 16.6826 16.3305 16.7438C16.3059 16.7983 16.2813 16.8528 16.256 16.909C16.2343 16.9572 16.2126 17.0053 16.1903 17.055C16.1354 17.1665 16.1354 17.1665 16.0658 17.2363C15.9719 17.2428 15.8776 17.2445 15.7834 17.2442C15.7235 17.2442 15.6636 17.2442 15.602 17.2442C15.5369 17.2438 15.4718 17.2435 15.4048 17.2431C15.3385 17.243 15.2723 17.2429 15.204 17.2428C14.9914 17.2424 14.7788 17.2415 14.5662 17.2406C14.4224 17.2403 14.2786 17.24 14.1349 17.2397C13.7816 17.2389 13.4284 17.2377 13.0752 17.2363C13.1184 16.8781 13.2806 16.5839 13.4392 16.2656C13.4691 16.2048 13.4989 16.1441 13.5297 16.0815C13.5937 15.9511 13.658 15.8208 13.7223 15.6907C13.8919 15.3478 14.06 15.0042 14.2282 14.6606C14.2614 14.5927 14.2947 14.5249 14.3289 14.455C14.579 13.9431 14.8212 13.4283 15.0573 12.9098C15.4407 12.07 15.8434 11.2402 16.2484 10.4107C16.2805 10.3449 16.3126 10.2791 16.3457 10.2113C16.471 9.95467 16.5963 9.69799 16.7217 9.44132C17.1497 8.5646 17.5687 7.6838 17.9814 6.79972C18.0731 6.60335 18.1648 6.407 18.2566 6.21066C18.2796 6.1614 18.3026 6.11215 18.3263 6.0614C18.7827 5.08528 19.2521 4.11573 19.7253 3.14773C19.9974 2.59053 20.2666 2.03298 20.517 1.46545ZM20.5865 7.11783C20.2309 7.80141 19.9218 8.5038 19.6143 9.21011C19.5299 9.4039 19.4451 9.59751 19.3603 9.7911C19.3058 9.91584 19.2513 10.0406 19.1969 10.1654C19.1719 10.2224 19.1469 10.2795 19.1211 10.3383C19.0974 10.3928 19.0737 10.4474 19.0493 10.5036C19.0185 10.5742 19.0185 10.5742 18.9871 10.6462C18.8885 10.8866 18.7997 11.1311 18.7087 11.3746C19.9021 11.3746 21.0956 11.3746 22.3252 11.3746C22.1879 10.9611 22.0471 10.5591 21.8827 10.1572C21.8499 10.0763 21.8499 10.0763 21.8164 9.99374C21.7471 9.82298 21.6776 9.65234 21.608 9.48171C21.5395 9.31312 21.471 9.14451 21.4025 8.9759C21.3578 8.86566 21.313 8.75542 21.2682 8.6452C21.0617 8.13704 20.8584 7.62767 20.6561 7.11783C20.6331 7.11783 20.6102 7.11783 20.5865 7.11783Z" fill="#F5F5F5"/>
<path d="M77.8259 3.14026C77.8718 3.14026 77.9177 3.14026 77.965 3.14026C78.7683 6.75569 79.5715 10.3711 80.3992 14.0961C80.1165 14.167 80.0183 14.1588 79.7443 14.0948C79.6678 14.0773 79.5914 14.0598 79.5126 14.0417C79.429 14.0219 79.3455 14.0021 79.2594 13.9816C79.1271 13.951 79.1271 13.951 78.9921 13.9198C78.7503 13.8638 78.5086 13.8071 78.2671 13.7502C78.0145 13.6909 77.7618 13.6323 77.5091 13.5736C77.0306 13.4624 76.5523 13.3506 76.0741 13.2385C75.5296 13.1109 74.9849 12.9841 74.4402 12.8573C73.3198 12.5965 72.1996 12.3347 71.0796 12.0724C71.1299 11.849 71.1918 11.7156 71.3347 11.5354C71.3734 11.4861 71.4121 11.4368 71.452 11.386C71.5151 11.3069 71.5151 11.3069 71.5795 11.2263C71.6685 11.1132 71.7575 11.0001 71.8465 10.8869C71.8923 10.829 71.9381 10.7711 71.9853 10.7115C72.201 10.4381 72.414 10.1627 72.6271 9.88735C72.688 9.80878 72.688 9.80878 72.7501 9.72862C73.0991 9.27836 73.446 8.82648 73.792 8.37394C74.2262 7.8062 74.6627 7.24039 75.1008 6.67575C75.4546 6.21971 75.8061 5.762 76.1567 5.30351C76.3234 5.08544 76.4903 4.86745 76.6577 4.64985C76.8084 4.45381 76.958 4.25694 77.1075 4.05997C77.1963 3.94384 77.285 3.82771 77.3738 3.7116C77.4164 3.65523 77.4589 3.59886 77.5028 3.54078C77.5427 3.48875 77.5826 3.43673 77.6237 3.38313C77.6594 3.33629 77.695 3.28944 77.7317 3.24117C77.7628 3.20787 77.7939 3.17457 77.8259 3.14026Z" fill="#F5F5F5"/>
<path d="M31.7847 1.74463C32.7716 1.74463 33.7585 1.74463 34.7753 1.74463C34.7753 6.85689 34.7753 11.9692 34.7753 17.2363C33.7884 17.2363 32.8015 17.2363 31.7847 17.2363C31.7847 12.1241 31.7847 7.01181 31.7847 1.74463Z" fill="#F5F5F5"/>
<path d="M24.0645 20.9348C24.2624 21.1097 24.3681 21.3023 24.49 21.5356C24.5318 21.615 24.5736 21.6943 24.6167 21.7761C24.6497 21.8392 24.6497 21.8392 24.6833 21.9036C24.7985 22.1241 24.9149 22.344 25.0314 22.5638C25.055 22.6084 25.0787 22.653 25.103 22.6989C25.4619 23.3745 25.8412 24.0388 26.2206 24.7031C26.3956 24.5442 26.4961 24.3867 26.6028 24.1762C26.6355 24.1122 26.6683 24.0483 26.702 23.9825C26.7368 23.9137 26.7715 23.8449 26.8074 23.7741C26.8818 23.629 26.9563 23.484 27.031 23.339C27.0692 23.2647 27.1075 23.1903 27.1469 23.1137C27.3327 22.756 27.5236 22.4012 27.7159 22.047C27.7501 21.9836 27.7843 21.9202 27.8195 21.8548C27.9922 21.5375 28.1706 21.2316 28.3766 20.9348C28.5363 21.1752 28.5955 21.4077 28.6655 21.6835C28.6869 21.7657 28.6869 21.7657 28.7088 21.8496C28.7558 22.0309 28.8023 22.2123 28.8488 22.3937C28.8813 22.5196 28.9138 22.6456 28.9464 22.7715C29.0146 23.0354 29.0825 23.2994 29.1502 23.5634C29.2371 23.9021 29.3245 24.2407 29.4121 24.5793C29.4794 24.8393 29.5464 25.0993 29.6133 25.3594C29.6455 25.4843 29.6777 25.6092 29.71 25.734C29.755 25.9083 29.7997 26.0828 29.8444 26.2572C29.8645 26.3349 29.8645 26.3349 29.8851 26.4141C29.9367 26.6174 29.9762 26.7952 29.9762 27.0059C29.5631 27.0059 29.15 27.0059 28.7243 27.0059C28.6588 26.7343 28.5932 26.4627 28.5278 26.1911C28.4949 26.0545 28.4619 25.9179 28.4289 25.7813C28.292 25.2133 28.1585 24.6447 28.0288 24.075C27.7248 24.5467 27.461 25.0357 27.1986 25.5317C26.4898 26.8709 26.4898 26.8709 26.2901 27.1455C26.2442 27.1455 26.1983 27.1455 26.151 27.1455C26.1227 27.0921 26.0944 27.0388 26.0652 26.9838C25.2882 25.5213 25.2882 25.5213 24.4818 24.075C24.364 24.4076 24.2821 24.74 24.2074 25.0841C24.1953 25.1393 24.1831 25.1945 24.1706 25.2513C24.1321 25.4262 24.094 25.6011 24.0558 25.776C24.0297 25.8951 24.0035 26.0142 23.9773 26.1333C23.9134 26.4241 23.8499 26.715 23.7863 27.0059C23.3962 27.0059 23.006 27.0059 22.604 27.0059C22.6521 26.62 22.7095 26.2602 22.8016 25.8857C22.8208 25.8061 22.8208 25.8061 22.8404 25.7249C22.8823 25.5515 22.9246 25.3782 22.967 25.2049C22.9963 25.0838 23.0257 24.9628 23.055 24.8417C23.1164 24.589 23.1779 24.3364 23.2396 24.0838C23.3188 23.7595 23.3975 23.435 23.476 23.1105C23.5364 22.861 23.5971 22.6115 23.6579 22.3621C23.687 22.2424 23.716 22.1227 23.745 22.0029C23.7854 21.8363 23.8261 21.6698 23.8669 21.5033C23.8849 21.4287 23.8849 21.4287 23.9032 21.3525C23.987 21.0126 23.987 21.0126 24.0645 20.9348Z" fill="#F5F5F5"/>
<path d="M20.6566 21.7722C21.3053 22.5004 21.4984 23.3242 21.4912 24.2843C21.4454 25.0303 21.1221 25.7833 20.587 26.308C19.6924 27.0239 18.8648 27.2364 17.7355 27.1454C16.8848 26.9804 16.2288 26.5126 15.7186 25.8195C15.2533 25.066 15.1237 24.2606 15.2641 23.3848C15.4416 22.647 15.8029 21.9551 16.4141 21.493C17.8101 20.6381 19.403 20.6396 20.6566 21.7722ZM16.877 22.7257C16.4485 23.2931 16.4253 23.8666 16.4836 24.5635C16.6144 25.1062 16.8727 25.498 17.3139 25.837C17.8192 26.1267 18.3282 26.1915 18.8961 26.0531C19.4337 25.8616 19.7932 25.5459 20.0567 25.0388C20.3193 24.4763 20.3333 23.7764 20.1697 23.1809C19.9842 22.7146 19.6294 22.3168 19.1874 22.0818C18.2754 21.7377 17.4678 21.9916 16.877 22.7257Z" fill="#F5F5F5"/>
<path d="M43.2598 20.9348C43.493 21.0518 43.6133 21.1309 43.7944 21.3053C43.8667 21.3742 43.8667 21.3742 43.9404 21.4446C43.9912 21.4937 44.042 21.5428 44.0944 21.5934C44.2012 21.6955 44.308 21.7975 44.4149 21.8995C44.4672 21.9495 44.5194 21.9994 44.5732 22.0509C44.83 22.2953 45.0916 22.5341 45.353 22.7734C45.4974 22.9058 45.6414 23.0386 45.785 23.1719C45.8242 23.2084 45.8634 23.2448 45.9038 23.2823C45.9776 23.3509 46.0514 23.4195 46.1251 23.4882C46.4411 23.7818 46.7629 24.0669 47.085 24.3542C47.1079 23.2718 47.1309 22.1895 47.1545 21.0744C47.5447 21.0744 47.9349 21.0744 48.3369 21.0744C48.3369 23.0778 48.3369 25.0813 48.3369 27.1455C48.1158 27.0345 48.0025 26.968 47.8326 26.8055C47.7907 26.7659 47.7489 26.7262 47.7057 26.6853C47.6615 26.6428 47.6173 26.6004 47.5718 26.5567C47.4778 26.4675 47.3838 26.3784 47.2898 26.2893C47.2433 26.245 47.1968 26.2008 47.1489 26.1552C46.9641 25.9804 46.777 25.8083 46.5894 25.6364C46.2662 25.34 45.9441 25.0425 45.6229 24.7439C45.2547 24.4022 44.8829 24.0647 44.5117 23.7261C44.4887 24.8084 44.4657 25.8908 44.4421 27.0059C44.0519 27.0059 43.6618 27.0059 43.2598 27.0059C43.2598 25.0024 43.2598 22.999 43.2598 20.9348Z" fill="#F5F5F5"/>
<path d="M2.31702 20.8999C2.36881 20.9003 2.42061 20.9006 2.47398 20.901C2.97312 20.9168 3.36271 21.0461 3.73327 21.3928C4.03699 21.7361 4.0588 22.0451 4.05303 22.4853C4.00366 22.9891 3.64182 23.3428 3.26897 23.6563C3.11005 23.7618 2.95229 23.8484 2.78213 23.9355C3.04574 24.3172 3.32115 24.6263 3.68627 24.9124C3.70931 24.857 3.73235 24.8016 3.75609 24.7445C3.87643 24.5048 3.97929 24.3312 4.17311 24.1448C4.53185 24.0757 4.85585 24.0987 5.21635 24.1448C5.08818 24.5284 4.85325 24.8342 4.62219 25.1609C4.59144 25.2056 4.56069 25.2504 4.52901 25.2965C4.50076 25.3367 4.4725 25.3768 4.4434 25.4182C4.36083 25.5591 4.36083 25.5591 4.38176 25.8196C4.45561 25.9422 4.45561 25.9422 4.56188 26.0532C4.59922 26.0954 4.63656 26.1377 4.67503 26.1812C4.71453 26.2245 4.75402 26.2678 4.79471 26.3124C4.87241 26.3988 4.94985 26.4854 5.02699 26.5722C5.06159 26.6103 5.09619 26.6483 5.13184 26.6875C5.21635 26.7965 5.21635 26.7965 5.2859 27.0059C4.23231 27.0808 4.23231 27.0808 3.91665 26.8971C3.80026 26.7762 3.70383 26.6608 3.61672 26.5174C3.57799 26.5452 3.53926 26.573 3.49935 26.6016C2.79472 27.0925 2.26335 27.2269 1.39114 27.1455C0.887399 27.0328 0.521526 26.7884 0.208808 26.3778C-0.056296 25.9317 -0.0583944 25.4724 0.0254263 24.9705C0.18376 24.429 0.672108 24.0455 1.11295 23.7261C1.08444 23.6848 1.05593 23.6435 1.02655 23.601C0.989079 23.5459 0.951604 23.4907 0.912993 23.4339C0.875877 23.3797 0.838761 23.3254 0.800519 23.2695C0.554244 22.8669 0.499956 22.517 0.556554 22.0513C0.68125 21.6419 0.899151 21.3872 1.25205 21.1442C1.61764 20.959 1.90901 20.8963 2.31702 20.8999ZM1.59979 22.0513C1.49575 22.2601 1.50051 22.3752 1.53024 22.6096C1.69556 22.9219 1.86116 23.1799 2.15619 23.3772C2.26814 23.3022 2.37961 23.2264 2.49089 23.1504C2.55302 23.1083 2.61515 23.0662 2.67916 23.0228C2.8961 22.8542 3.02634 22.7022 3.12118 22.4439C3.13322 22.1901 3.05709 22.0535 2.92123 21.842C2.42993 21.5343 1.97804 21.6528 1.59979 22.0513ZM1.46504 24.581C1.41564 24.623 1.36624 24.6651 1.31535 24.7085C1.09538 24.9306 1.02269 25.1203 1.01732 25.4314C1.02356 25.6558 1.0423 25.7478 1.15207 25.9504C1.47134 26.2297 1.73376 26.3298 2.15184 26.3124C2.53522 26.2618 2.7801 26.0764 3.06032 25.8196C2.79814 25.4469 2.51167 25.1079 2.204 24.7729C2.16646 24.7318 2.12892 24.6908 2.09024 24.6485C1.99788 24.5489 1.90335 24.4513 1.80844 24.3542C1.67142 24.3542 1.56301 24.4963 1.46504 24.581Z" fill="#F5F5F5"/>
<path d="M13.0755 21.214C13.4515 21.4482 13.7976 21.6805 14.0492 22.0513C13.9434 22.3221 13.7807 22.4518 13.5536 22.6271C13.4903 22.6763 13.4271 22.7256 13.3618 22.7764C13.289 22.832 13.289 22.832 13.2146 22.8887C13.1658 22.8384 13.117 22.788 13.0668 22.7361C12.6237 22.294 12.2761 22.0323 11.628 22.0252C11.0084 22.0375 10.6991 22.1793 10.2718 22.6227C9.85075 23.1331 9.76448 23.6136 9.78277 24.2697C9.84597 24.8619 10.1135 25.3683 10.5717 25.7498C11.0731 26.0491 11.5788 26.1161 12.1439 25.9878C12.6296 25.8278 12.8724 25.5457 13.145 25.1218C13.4503 25.3498 13.7538 25.5788 14.0492 25.8196C13.8847 26.3096 13.5216 26.6026 13.072 26.8377C12.1089 27.2529 11.1941 27.232 10.2115 26.8821C9.49827 26.5689 9.02355 25.9967 8.7178 25.2946C8.39451 24.4554 8.40664 23.5521 8.74796 22.7162C9.13017 21.9235 9.68708 21.4037 10.5022 21.0744C11.3125 20.7972 12.3084 20.8215 13.0755 21.214Z" fill="#F5F5F5"/>
<path d="M38.9477 20.9348C38.9936 20.9348 39.0395 20.9348 39.0868 20.9348C39.7503 22.294 40.4085 23.6546 41.0393 25.0294C41.2669 25.5248 41.501 26.0171 41.7371 26.5086C41.7638 26.5643 41.7905 26.62 41.818 26.6774C41.8414 26.726 41.8647 26.7746 41.8888 26.8247C41.9383 26.9361 41.9383 26.9361 41.9383 27.0059C41.5022 27.0059 41.0662 27.0059 40.6169 27.0059C40.3778 26.4912 40.3778 26.4912 40.3027 26.3295C40.1839 26.0734 40.1839 26.0734 40.0605 25.8196C39.349 25.8196 38.6375 25.8196 37.9045 25.8196C37.7209 26.2111 37.5373 26.6025 37.3481 27.0059C36.935 27.0059 36.5218 27.0059 36.0962 27.0059C36.4906 26.1044 36.9089 25.2169 37.3394 24.3323C37.3666 24.2763 37.3939 24.2203 37.422 24.1627C37.5305 23.9398 37.639 23.7169 37.7475 23.4941C37.9742 23.0286 38.1988 22.5622 38.4217 22.0949C38.4516 22.0325 38.4815 21.97 38.5123 21.9057C38.665 21.5849 38.8107 21.2627 38.9477 20.9348ZM39.0173 23.2376C38.9255 23.4162 38.8343 23.595 38.7434 23.7741C38.7175 23.8244 38.6915 23.8747 38.6648 23.9266C38.6399 23.9759 38.615 24.0251 38.5894 24.0758C38.5549 24.1433 38.5549 24.1433 38.5198 24.2121C38.4432 24.3837 38.4432 24.3837 38.3913 24.7031C38.8044 24.7031 39.2176 24.7031 39.6432 24.7031C39.5442 24.4375 39.5442 24.4375 39.4432 24.1666C39.4227 24.1115 39.4022 24.0564 39.3811 23.9996C39.2858 23.7444 39.1891 23.4901 39.0868 23.2376C39.0639 23.2376 39.0409 23.2376 39.0173 23.2376Z" fill="#F5F5F5"/>
<path d="M31.7847 21.0743C34.618 21.0743 34.618 21.0743 35.236 21.6721C35.6484 22.1167 35.7139 22.5733 35.7006 23.1681C35.6539 23.6286 35.4813 23.9528 35.1491 24.2712C34.4835 24.8082 33.7986 24.8426 32.967 24.8426C32.967 25.5565 32.967 26.2703 32.967 27.0058C32.5768 27.0058 32.1867 27.0058 31.7847 27.0058C31.7847 25.0485 31.7847 23.0911 31.7847 21.0743ZM32.967 21.9815C32.967 22.6033 32.967 23.225 32.967 23.8656C33.71 23.8661 33.71 23.8661 34.3232 23.4993C34.4536 23.2595 34.4924 23.0927 34.4971 22.8189C34.4193 22.5724 34.3472 22.3937 34.1711 22.2039C33.7609 21.9926 33.4254 21.9815 32.967 21.9815Z" fill="#F5F5F5"/>
<path d="M49.5889 21.0742C49.8007 21.0572 50.0113 21.0448 50.2235 21.035C50.283 21.0297 50.3426 21.0245 50.4039 21.019C50.5898 21.0126 50.7324 21.0187 50.9103 21.0742C51.098 21.2565 51.2057 21.4724 51.3276 21.7023C51.4063 21.8285 51.4858 21.9541 51.5661 22.0793C51.6461 22.2079 51.726 22.3367 51.8057 22.4655C51.847 22.5314 51.8882 22.5973 51.9307 22.6652C51.9696 22.728 52.0085 22.7909 52.0486 22.8556C52.1015 22.9406 52.1015 22.9406 52.1554 23.0273C52.2317 23.1677 52.2317 23.1677 52.2317 23.3073C52.2776 23.3073 52.3235 23.3073 52.3708 23.3073C52.3893 23.2571 52.4077 23.2069 52.4267 23.1552C52.5115 22.9545 52.6115 22.7838 52.7292 22.6007C52.7717 22.5342 52.8143 22.4676 52.8581 22.399C52.9024 22.3303 52.9468 22.2616 52.9924 22.1908C53.08 22.0541 53.1676 21.9175 53.2551 21.7808C53.3134 21.6904 53.3134 21.6904 53.3728 21.5981C53.4874 21.4232 53.4874 21.4232 53.5829 21.2285C53.6923 21.0742 53.6923 21.0742 53.8373 21.0346C53.9187 21.0374 53.9187 21.0374 54.0017 21.0402C54.0607 21.0413 54.1196 21.0424 54.1803 21.0436C54.2723 21.048 54.2723 21.048 54.366 21.0524C54.4281 21.054 54.4902 21.0556 54.5542 21.0572C54.7075 21.0613 54.8605 21.067 55.0137 21.0742C54.9199 21.3281 54.806 21.5482 54.6622 21.777C54.6198 21.8447 54.5774 21.9124 54.5337 21.9822C54.4884 22.0539 54.4431 22.1256 54.3965 22.1995C54.3502 22.2733 54.3039 22.347 54.2562 22.423C54.1149 22.6482 53.9732 22.8731 53.8314 23.0979C53.7086 23.2927 53.5859 23.4875 53.4632 23.6823C53.3912 23.7966 53.319 23.9109 53.2468 24.025C53.2146 24.0758 53.1825 24.1267 53.1495 24.179C53.1215 24.2232 53.0935 24.2673 53.0647 24.3128C52.9044 24.5747 52.9118 24.8111 52.9052 25.1113C52.9038 25.1653 52.9023 25.2193 52.9008 25.2749C52.8963 25.4477 52.8922 25.6205 52.8881 25.7933C52.8851 25.9103 52.8821 26.0273 52.879 26.1444C52.8715 26.4315 52.8646 26.7186 52.8577 27.0057C52.4905 27.0057 52.1232 27.0057 51.7449 27.0057C51.7487 26.8382 51.7526 26.6706 51.7566 26.4979C51.7976 24.8454 51.7976 24.8454 51.0217 23.4426C50.8115 23.1871 50.6476 22.9003 50.4756 22.6182C50.4062 22.5071 50.3367 22.3962 50.267 22.2853C50.2344 22.2335 50.2019 22.1816 50.1684 22.1282C50.0847 21.9956 50.0001 21.8636 49.9149 21.732C49.8704 21.6632 49.8259 21.5944 49.7801 21.5235C49.7425 21.4658 49.7048 21.4081 49.666 21.3487C49.5889 21.2138 49.5889 21.2138 49.5889 21.0742Z" fill="#F5F5F5"/>
</g>
<defs>
<clipPath id="clip0_3784_15553">
<rect width="89.2419" height="27.1" fill="white"/>
</clipPath>
</defs>
</svg>
