<svg width="103" height="32" viewBox="0 0 103 32" fill="none" xmlns="http://www.w3.org/2000/svg">
<g clip-path="url(#clip0_3784_15747)">
<path d="M85.8906 -0.0133679C85.9584 -0.0136345 86.0261 -0.013901 86.0959 -0.0141756C86.2383 -0.0145781 86.3806 -0.0147689 86.5229 -0.0147559C86.7381 -0.014931 86.9533 -0.0163883 87.1684 -0.0179033C87.8682 -0.0201164 88.5398 -0.0136882 89.2231 0.160228C89.1162 0.388342 88.9951 0.585215 88.8441 0.786427C88.8021 0.842475 88.7601 0.898523 88.7169 0.95627C88.6514 1.04282 88.6514 1.04282 88.5847 1.13112C88.5193 1.2186 88.5193 1.2186 88.4525 1.30784C88.1283 1.73916 88.1283 1.73916 87.9462 1.92184C87.7337 1.94356 87.7337 1.94356 87.463 1.94655C87.3637 1.94838 87.2644 1.9502 87.162 1.95208C87.1093 1.95282 87.0566 1.95355 87.0023 1.9543C83.2898 2.01278 79.8709 3.30959 77.2523 6.00558C76.2738 7.04494 75.5248 8.22955 74.9379 9.52881C74.9046 9.60245 74.9046 9.60245 74.8706 9.67757C74.6077 10.2702 74.4076 10.8703 74.2396 11.4956C74.2238 11.5541 74.2079 11.6126 74.1916 11.6729C73.9458 12.6372 73.8712 13.6007 73.8755 14.5934C73.8757 14.6746 73.8757 14.6746 73.876 14.7575C73.8799 15.6251 73.9345 16.4522 74.1399 17.2959C74.1604 17.3841 74.1604 17.3841 74.1814 17.4741C74.3931 18.3661 74.6971 19.195 75.0975 20.0184C75.1221 20.0693 75.1467 20.1202 75.172 20.1726C75.7519 21.3559 76.5013 22.3556 77.4119 23.3014C77.5151 23.4126 77.5151 23.4126 77.6205 23.526C79.8069 25.8205 83.0823 27.1531 86.2267 27.2413C90.0432 27.2933 93.4189 25.9536 96.1762 23.3164C98.0632 21.3593 99.1933 18.8498 99.5979 16.1749C99.6136 16.0741 99.6136 16.0741 99.6297 15.9713C100.024 12.867 99.0511 9.53525 97.17 7.05709C96.9021 6.72076 96.6176 6.4011 96.3258 6.08565C96.2878 6.04398 96.2498 6.0023 96.2106 5.95937C94.9752 4.61772 93.3845 3.52988 91.6644 2.9237C91.4577 2.80265 91.4577 2.80265 91.3589 2.59464C91.3388 2.50474 91.3187 2.41484 91.2981 2.32221C91.2777 2.23867 91.2777 2.23867 91.2568 2.15344C91.2115 1.96663 91.1697 1.77929 91.1285 1.59154C91.114 1.52765 91.0995 1.46375 91.0845 1.39792C91.064 1.30518 91.064 1.30518 91.0431 1.21057C91.0307 1.15492 91.0184 1.09927 91.0056 1.04193C90.9789 0.880888 90.9789 0.880888 90.9789 0.560595C93.2717 0.974977 95.4101 2.40101 97.1239 3.92367C97.1971 3.98736 97.2704 4.05105 97.3458 4.11666C97.7599 4.4814 98.1314 4.85781 98.4806 5.28492C98.5145 5.32512 98.5484 5.36533 98.5834 5.40675C101.274 8.59795 102.502 12.6616 102.215 16.819C101.858 20.8882 99.8996 24.7127 96.7989 27.3666C93.9324 29.7191 90.4698 31.0054 86.7641 31.0085C86.6768 31.0086 86.6768 31.0086 86.5878 31.0086C85.614 31.0072 84.6715 30.9486 83.7165 30.7482C83.6505 30.7345 83.5845 30.7207 83.5165 30.7066C80.8609 30.1344 78.3981 28.9269 76.3981 27.0736C76.234 26.9224 76.0661 26.7782 75.8956 26.6345C73.4997 24.5239 71.97 21.2904 71.4265 18.1767C71.4124 18.0978 71.3983 18.0188 71.3838 17.9375C71.2549 17.1402 71.235 16.3555 71.2369 15.5493C71.237 15.4809 71.237 15.4124 71.2371 15.3419C71.2489 11.2701 72.8333 7.52806 75.6295 4.59605C75.7203 4.50066 75.8099 4.40417 75.8993 4.30746C78.3748 1.70167 82.315 -0.00833968 85.8906 -0.0133679Z" fill="#393939"/>
<path d="M47.4844 1.68152C47.7451 1.81233 47.8789 1.89576 48.0804 2.08908C48.1321 2.13823 48.1837 2.18738 48.237 2.23802C48.2915 2.29054 48.346 2.34306 48.4021 2.39717C48.5173 2.5069 48.6326 2.61658 48.7479 2.72622C48.8045 2.78026 48.8612 2.8343 48.9195 2.88997C49.1356 3.09512 49.3546 3.29688 49.5743 3.49818C49.901 3.7976 50.2269 4.09777 50.5519 4.39901C50.6166 4.45895 50.6166 4.45895 50.6826 4.52011C50.7699 4.60109 50.8573 4.68207 50.9447 4.76305C51.1612 4.96373 51.3778 5.16431 51.5944 5.36489C51.6808 5.44496 51.7673 5.52504 51.8537 5.60511C51.8965 5.64475 51.9393 5.68438 51.9834 5.72522C55.4849 8.96819 55.4849 8.96819 55.6146 9.08832C55.701 9.16833 55.7874 9.24834 55.8738 9.32834C56.0909 9.52947 56.3081 9.73064 56.5252 9.93188C57.3921 10.7354 58.2627 11.5347 59.136 12.3313C59.1623 8.92255 59.1887 5.51383 59.2158 2.00181C60.2956 2.00181 61.3753 2.00181 62.4878 2.00181C62.4878 8.0001 62.4878 13.9984 62.4878 20.1785C62.2172 20.0427 62.1052 19.9717 61.9092 19.7631C61.719 19.5614 61.5195 19.3766 61.3107 19.1947C60.9838 18.9099 60.6676 18.6151 60.353 18.3167C59.8951 17.8842 59.4345 17.455 58.9702 17.0293C58.7205 16.8003 58.4717 16.5703 58.2232 16.3399C58.1801 16.3 58.137 16.26 58.0925 16.2188C58.0052 16.1379 57.9178 16.0569 57.8305 15.9759C57.614 15.7752 57.3974 15.5746 57.1808 15.3741C57.0943 15.294 57.0078 15.2139 56.9214 15.1338C56.8786 15.0942 56.8358 15.0546 56.7917 15.0137C54.3277 12.7316 54.3277 12.7316 54.198 12.6115C54.1116 12.5315 54.0252 12.4515 53.9388 12.3715C53.7217 12.1704 53.5045 11.9692 53.2874 11.7679C53.0291 11.5285 52.7707 11.2892 52.5121 11.0501C52.4486 10.9913 52.4486 10.9913 52.3838 10.9314C52.2588 10.8157 52.1336 10.7002 52.0084 10.5847C51.9362 10.5181 51.8641 10.4515 51.7898 10.3829C51.5017 10.1214 51.2084 9.86551 50.916 9.60878C50.8897 12.9646 50.8633 16.3205 50.8362 19.7781C49.7301 19.7781 48.624 19.7781 47.4844 19.7781C47.4844 13.8062 47.4844 7.83435 47.4844 1.68152Z" fill="#393939"/>
<path d="M0.558594 2.00183C8.8012 2.00183 8.8012 2.00183 10.5786 3.71402C11.3949 4.59062 11.6342 5.75646 11.5973 6.92884C11.4957 8.03264 11.0163 8.93407 10.2151 9.68887C9.95744 9.89012 9.69316 10.0747 9.41702 10.2494C9.49417 10.2882 9.57133 10.327 9.65082 10.367C11.0165 11.0665 11.9338 11.8773 12.4496 13.3722C12.7476 14.3797 12.6471 15.7851 12.2102 16.7353C12.1822 16.7992 12.1543 16.8631 12.1254 16.9289C11.5239 18.1465 10.4029 18.8659 9.16451 19.3077C6.43864 20.1954 3.26452 19.7781 0.558594 19.7781C0.558594 13.9119 0.558594 8.04576 0.558594 2.00183ZM3.99024 4.72432C3.99024 6.28335 3.99024 7.84238 3.99024 9.44865C5.94025 9.53716 5.94025 9.53716 7.58149 8.72799C8.03862 8.26932 8.15531 7.76525 8.17504 7.13653C8.15698 6.45881 8.02935 5.93317 7.53161 5.45499C6.50184 4.64481 5.24468 4.72432 3.99024 4.72432ZM3.99024 12.2512C3.99024 13.8102 3.99024 15.3693 3.99024 16.9755C6.34008 17.1243 6.34008 17.1243 8.45998 16.2586C8.85841 15.8479 9.06914 15.3326 9.10341 14.7623C9.08133 14.019 8.91491 13.4807 8.36957 12.9619C7.1759 11.9905 5.38045 12.2512 3.99024 12.2512Z" fill="#393939"/>
<path d="M23.5426 1.68152C23.782 1.76159 23.782 1.76159 23.8791 1.9244C23.9272 2.03332 23.9272 2.03332 23.9763 2.14444C24.0141 2.22841 24.0519 2.31238 24.0908 2.39889C24.1321 2.49246 24.1734 2.58603 24.216 2.68243C24.3084 2.8879 24.4016 3.09298 24.495 3.298C24.5202 3.35335 24.5453 3.40871 24.5712 3.46574C24.9062 4.19888 25.2632 4.92134 25.6176 5.64515C26.1077 6.64764 26.5893 7.65254 27.0531 8.6676C27.4393 9.5083 27.845 10.3391 28.2512 11.1702C28.7407 12.172 29.2222 13.1761 29.6857 14.1904C30.1468 15.1943 30.6335 16.1858 31.119 17.178C31.4188 17.791 31.7181 18.4041 32.0101 19.0208C32.055 19.1153 32.1 19.2098 32.1462 19.3071C32.2414 19.5379 32.2414 19.5379 32.2414 19.7781C31.0037 19.7781 29.7659 19.7781 28.4906 19.7781C28.3161 19.3916 28.1416 19.0052 27.9619 18.607C27.9079 18.4876 27.8539 18.3682 27.7983 18.2452C27.561 17.7195 27.326 17.1928 27.0971 16.6634C27.058 16.573 27.0188 16.4826 26.9785 16.3896C26.8945 16.1748 26.8945 16.1748 26.8945 16.0146C24.6559 16.0146 22.4174 16.0146 20.111 16.0146C20.0583 16.1732 20.0056 16.3317 19.9514 16.4951C19.9037 16.6116 19.8542 16.7275 19.8026 16.8424C19.7742 16.9062 19.7457 16.97 19.7163 17.0358C19.686 17.1031 19.6556 17.1705 19.6244 17.2398C19.5929 17.31 19.5614 17.3803 19.529 17.4526C19.4628 17.6003 19.3964 17.7478 19.33 17.8954C19.2279 18.1221 19.1263 18.349 19.0247 18.5759C18.9603 18.7194 18.8958 18.8629 18.8313 19.0064C18.8008 19.0746 18.7703 19.1427 18.7388 19.2129C18.7106 19.2755 18.6824 19.3381 18.6533 19.4025C18.6284 19.4578 18.6035 19.5131 18.5779 19.57C18.5149 19.698 18.5149 19.698 18.4351 19.7781C18.3272 19.7855 18.2191 19.7875 18.111 19.7872C18.0423 19.7872 17.9736 19.7872 17.9028 19.7872C17.8282 19.7867 17.7535 19.7863 17.6766 19.7859C17.6005 19.7858 17.5245 19.7857 17.4461 19.7856C17.2022 19.7851 16.9582 19.7841 16.7143 19.7831C16.5493 19.7827 16.3843 19.7823 16.2194 19.782C15.814 19.7811 15.4087 19.7797 15.0034 19.7781C15.053 19.3671 15.2392 19.0295 15.4212 18.6643C15.4554 18.5945 15.4896 18.5248 15.5249 18.453C15.5984 18.3034 15.6721 18.1539 15.746 18.0045C15.9405 17.6111 16.1335 17.2168 16.3264 16.8226C16.3646 16.7447 16.4027 16.6668 16.442 16.5866C16.729 15.9993 17.0069 15.4085 17.2779 14.8135C17.7178 13.8499 18.1798 12.8977 18.6446 11.9459C18.6814 11.8704 18.7183 11.7949 18.7562 11.7172C18.9 11.4226 19.0438 11.1281 19.1877 10.8336C19.6788 9.82758 20.1596 8.81688 20.6331 7.80243C20.7384 7.57711 20.8436 7.3518 20.9489 7.1265C20.9753 7.06998 21.0017 7.01346 21.0289 6.95523C21.5526 5.83516 22.0912 4.72263 22.6342 3.61188C22.9465 2.97251 23.2554 2.33274 23.5426 1.68152ZM23.6224 8.16746C23.2143 8.95185 22.8597 9.75781 22.5069 10.5683C22.41 10.7906 22.3127 11.0128 22.2154 11.235C22.1529 11.3781 22.0903 11.5212 22.0279 11.6644C21.9992 11.7299 21.9705 11.7954 21.941 11.8629C21.9138 11.9254 21.8866 11.988 21.8585 12.0525C21.8232 12.1335 21.8232 12.1335 21.7872 12.2161C21.674 12.4921 21.5721 12.7725 21.4677 13.0519C22.8371 13.0519 24.2066 13.0519 25.6176 13.0519C25.4599 12.5775 25.2984 12.1163 25.1097 11.655C25.0721 11.5622 25.0721 11.5622 25.0337 11.4675C24.9542 11.2715 24.8744 11.0757 24.7946 10.8799C24.7159 10.6865 24.6374 10.493 24.5588 10.2995C24.5074 10.173 24.456 10.0465 24.4046 9.92007C24.1677 9.33697 23.9344 8.75248 23.7022 8.16746C23.6759 8.16746 23.6496 8.16746 23.6224 8.16746Z" fill="#393939"/>
<path d="M89.3027 3.60327C89.3553 3.60327 89.408 3.60327 89.4623 3.60327C90.384 7.75187 91.3058 11.9005 92.2555 16.1748C91.9311 16.2561 91.8184 16.2467 91.504 16.1733C91.4163 16.1532 91.3285 16.1331 91.2381 16.1124C91.1423 16.0896 91.0464 16.0669 90.9476 16.0434C90.7958 16.0083 90.7958 16.0083 90.6409 15.9725C90.3634 15.9083 90.0862 15.8432 89.8089 15.7779C89.5191 15.7098 89.2291 15.6426 88.9392 15.5753C88.3902 15.4477 87.8413 15.3193 87.2925 15.1907C86.6677 15.0443 86.0428 14.8988 85.4177 14.7533C84.1321 14.454 82.8467 14.1537 81.5615 13.8527C81.6193 13.5963 81.6903 13.4432 81.8542 13.2365C81.8987 13.1799 81.9431 13.1233 81.9888 13.065C82.0613 12.9743 82.0613 12.9743 82.1351 12.8818C82.2373 12.752 82.3394 12.6222 82.4416 12.4923C82.4941 12.4259 82.5467 12.3595 82.6008 12.291C82.8483 11.9774 83.0927 11.6614 83.3372 11.3454C83.4071 11.2552 83.4071 11.2552 83.4784 11.1632C83.8789 10.6466 84.2769 10.128 84.6739 9.60877C85.1721 8.9573 85.673 8.30805 86.1758 7.66015C86.5817 7.13685 86.985 6.61164 87.3873 6.08554C87.5787 5.83531 87.7701 5.58518 87.9622 5.33548C88.1352 5.11053 88.3069 4.88464 88.4784 4.65861C88.5802 4.52535 88.6821 4.3921 88.7839 4.25887C88.8328 4.19419 88.8816 4.1295 88.9319 4.06285C88.9777 4.00316 89.0235 3.94347 89.0707 3.88196C89.1116 3.82821 89.1525 3.77445 89.1947 3.71906C89.2303 3.68085 89.2659 3.64264 89.3027 3.60327Z" fill="#393939"/>
<path d="M36.4717 2.00183C37.6041 2.00183 38.7366 2.00183 39.9033 2.00183C39.9033 7.868 39.9033 13.7342 39.9033 19.7781C38.7709 19.7781 37.6384 19.7781 36.4717 19.7781C36.4717 13.9119 36.4717 8.04576 36.4717 2.00183Z" fill="#393939"/>
<path d="M27.6129 24.022C27.84 24.2226 27.9613 24.4437 28.1011 24.7114C28.1491 24.8024 28.1971 24.8935 28.2465 24.9873C28.2843 25.0597 28.2843 25.0597 28.3229 25.1336C28.4551 25.3867 28.5887 25.6389 28.7224 25.8912C28.7495 25.9423 28.7766 25.9935 28.8045 26.0462C29.2164 26.8215 29.6516 27.5838 30.0869 28.3459C30.2878 28.1636 30.4031 27.9829 30.5255 27.7413C30.5631 27.668 30.6006 27.5946 30.6393 27.5191C30.6792 27.4402 30.7191 27.3613 30.7603 27.28C30.8457 27.1135 30.9312 26.9471 31.0168 26.7807C31.0607 26.6954 31.1047 26.6101 31.1499 26.5222C31.3631 26.1118 31.5821 25.7046 31.8027 25.2981C31.842 25.2254 31.8812 25.1526 31.9216 25.0777C32.1198 24.7135 32.3246 24.3625 32.5609 24.022C32.7441 24.2978 32.812 24.5646 32.8925 24.881C32.917 24.9754 32.917 24.9754 32.9421 25.0717C32.9961 25.2797 33.0494 25.4878 33.1027 25.696C33.14 25.8405 33.1773 25.985 33.2147 26.1295C33.293 26.4323 33.3709 26.7352 33.4486 27.0382C33.5482 27.4269 33.6486 27.8154 33.7491 28.2039C33.8263 28.5022 33.9032 28.8006 33.98 29.0991C34.0169 29.2424 34.0539 29.3856 34.0909 29.5289C34.1426 29.729 34.1939 29.9291 34.2451 30.1293C34.2682 30.2184 34.2682 30.2184 34.2918 30.3093C34.3511 30.5425 34.3964 30.7465 34.3964 30.9883C33.9224 30.9883 33.4483 30.9883 32.9599 30.9883C32.8847 30.6767 32.8095 30.3651 32.7344 30.0534C32.6966 29.8967 32.6587 29.7399 32.6209 29.5832C32.4639 28.9314 32.3107 28.2789 32.1619 27.6253C31.813 28.1666 31.5103 28.7277 31.2092 29.2968C30.3958 30.8335 30.3958 30.8335 30.1667 31.1485C30.114 31.1485 30.0614 31.1485 30.0071 31.1485C29.9746 31.0873 29.9421 31.0261 29.9086 30.963C29.0171 29.2848 29.0171 29.2848 28.0918 27.6253C27.9566 28.0069 27.8626 28.3884 27.7769 28.7832C27.763 28.8465 27.749 28.9098 27.7346 28.975C27.6905 29.1757 27.6467 29.3764 27.603 29.5771C27.5729 29.7137 27.5429 29.8504 27.5129 29.9871C27.4395 30.3208 27.3666 30.6546 27.2937 30.9883C26.846 30.9883 26.3983 30.9883 25.937 30.9883C25.9922 30.5456 26.0581 30.1327 26.1638 29.703C26.1858 29.6116 26.1858 29.6116 26.2083 29.5185C26.2563 29.3195 26.3049 29.1206 26.3535 28.9218C26.3872 28.7829 26.4209 28.6439 26.4546 28.505C26.5249 28.2151 26.5955 27.9252 26.6663 27.6354C26.7572 27.2632 26.8475 26.8908 26.9376 26.5185C27.0069 26.2322 27.0766 25.946 27.1463 25.6598C27.1797 25.5224 27.213 25.385 27.2463 25.2476C27.2926 25.0564 27.3393 24.8654 27.3861 24.6743C27.4068 24.5886 27.4068 24.5886 27.4279 24.5013C27.524 24.1112 27.524 24.1112 27.6129 24.022Z" fill="#393939"/>
<path d="M23.7024 24.9829C24.4468 25.8185 24.6683 26.7639 24.6601 27.8656C24.6075 28.7215 24.2366 29.5856 23.6226 30.1877C22.5961 31.0091 21.6464 31.253 20.3506 31.1486C19.3744 30.9592 18.6217 30.4224 18.0362 29.6272C17.5023 28.7625 17.3536 27.8383 17.5147 26.8334C17.7184 25.9868 18.133 25.1929 18.8343 24.6626C20.4362 23.6816 22.264 23.6833 23.7024 24.9829ZM19.3655 26.077C18.8737 26.7282 18.8472 27.3862 18.9141 28.1858C19.0642 28.8086 19.3606 29.2582 19.8667 29.6472C20.4466 29.9797 21.0307 30.0539 21.6823 29.8952C22.2992 29.6754 22.7117 29.3132 23.0141 28.7313C23.3154 28.0859 23.3315 27.2827 23.1438 26.5994C22.9309 26.0644 22.5238 25.6079 22.0165 25.3382C20.97 24.9434 20.0434 25.2347 19.3655 26.077Z" fill="#393939"/>
<path d="M49.6392 24.022C49.9068 24.1562 50.0448 24.247 50.2527 24.447C50.3356 24.5262 50.3356 24.5262 50.4201 24.607C50.4785 24.6633 50.5368 24.7196 50.5968 24.7777C50.7194 24.8948 50.842 25.0119 50.9647 25.1289C51.0246 25.1862 51.0845 25.2436 51.1463 25.3026C51.4409 25.583 51.7411 25.8571 52.0411 26.1317C52.2068 26.2837 52.3721 26.436 52.5368 26.589C52.5818 26.6308 52.6268 26.6726 52.6731 26.7156C52.7578 26.7943 52.8424 26.8731 52.927 26.9519C53.2896 27.2887 53.6589 27.6159 54.0285 27.9456C54.0548 26.7036 54.0811 25.4617 54.1083 24.1821C54.556 24.1821 55.0037 24.1821 55.465 24.1821C55.465 26.481 55.465 28.7799 55.465 31.1485C55.2113 31.0212 55.0813 30.9448 54.8864 30.7585C54.8383 30.7129 54.7903 30.6674 54.7408 30.6205C54.6901 30.5718 54.6394 30.5231 54.5871 30.4729C54.4793 30.3706 54.3714 30.2683 54.2635 30.166C54.2102 30.1153 54.1568 30.0645 54.1018 30.0123C53.8898 29.8116 53.6751 29.6141 53.4599 29.4169C53.089 29.0768 52.7194 28.7354 52.3508 28.3928C51.9282 28.0007 51.5016 27.6134 51.0757 27.2249C51.0493 28.4668 51.023 29.7088 50.9959 30.9883C50.5481 30.9883 50.1004 30.9883 49.6392 30.9883C49.6392 28.6894 49.6392 26.3905 49.6392 24.022Z" fill="#393939"/>
<path d="M2.65875 23.982C2.71818 23.9824 2.77762 23.9828 2.83886 23.9832C3.4116 24.0013 3.85865 24.1497 4.28385 24.5475C4.63236 24.9415 4.6574 25.296 4.65077 25.8011C4.59413 26.3792 4.17892 26.7851 3.75109 27.1449C3.56873 27.2659 3.3877 27.3652 3.19245 27.4652C3.49494 27.9032 3.81096 28.2579 4.22992 28.5862C4.25636 28.5226 4.2828 28.459 4.31004 28.3935C4.44813 28.1185 4.56616 27.9193 4.78856 27.7054C5.2002 27.6261 5.57198 27.6525 5.98564 27.7054C5.83858 28.1455 5.569 28.4964 5.30387 28.8713C5.26858 28.9227 5.2333 28.974 5.19694 29.0269C5.16452 29.073 5.1321 29.1191 5.0987 29.1666C5.00396 29.3283 5.00396 29.3283 5.02798 29.6271C5.11272 29.7679 5.11272 29.7679 5.23466 29.8952C5.27751 29.9437 5.32036 29.9921 5.3645 30.0421C5.40982 30.0918 5.45513 30.1415 5.50182 30.1927C5.59099 30.2917 5.67985 30.3911 5.76836 30.4908C5.80806 30.5344 5.84777 30.5781 5.88867 30.6231C5.98564 30.7482 5.98564 30.7482 6.06545 30.9884C4.85648 31.0744 4.85648 31.0744 4.49428 30.8636C4.36072 30.7248 4.25007 30.5924 4.15012 30.4279C4.10567 30.4598 4.06123 30.4917 4.01544 30.5245C3.20689 31.0878 2.59717 31.242 1.59634 31.1485C1.0183 31.0193 0.598475 30.7388 0.239639 30.2677C-0.0645597 29.7558 -0.0669675 29.2287 0.0292143 28.6528C0.210897 28.0315 0.771263 27.5914 1.27711 27.2249C1.2444 27.1776 1.21168 27.1302 1.17798 27.0814C1.13498 27.0181 1.09198 26.9548 1.04767 26.8896C1.00508 26.8274 0.962491 26.7652 0.918611 26.701C0.636017 26.239 0.573723 25.8375 0.638668 25.3032C0.781752 24.8333 1.03179 24.5411 1.43672 24.2622C1.85623 24.0497 2.19057 23.9778 2.65875 23.982ZM1.83575 25.3032C1.71637 25.5428 1.72184 25.6749 1.75595 25.9438C1.94564 26.3021 2.13566 26.5981 2.4742 26.8246C2.60266 26.7385 2.73058 26.6516 2.85826 26.5643C2.92955 26.516 3.00085 26.4677 3.0743 26.418C3.32323 26.2244 3.47267 26.05 3.5815 25.7536C3.59532 25.4624 3.50796 25.3057 3.35206 25.063C2.78831 24.7099 2.26978 24.8459 1.83575 25.3032ZM1.68113 28.2058C1.62444 28.2542 1.56776 28.3025 1.50936 28.3522C1.25696 28.607 1.17355 28.8247 1.16738 29.1817C1.17454 29.4392 1.19605 29.5447 1.322 29.7773C1.68835 30.0977 1.98948 30.2126 2.46921 30.1927C2.90913 30.1345 3.19012 29.9218 3.51167 29.6271C3.21082 29.1995 2.8821 28.8105 2.52906 28.426C2.48598 28.379 2.44291 28.3319 2.39852 28.2834C2.29255 28.1691 2.18408 28.0571 2.07517 27.9456C1.91794 27.9456 1.79355 28.1088 1.68113 28.2058Z" fill="#393939"/>
<path d="M15.0037 24.3423C15.4352 24.6111 15.8322 24.8776 16.1209 25.3032C15.9996 25.6139 15.8128 25.7627 15.5523 25.9638C15.4797 26.0203 15.4071 26.0769 15.3322 26.1352C15.2486 26.199 15.2486 26.199 15.1633 26.264C15.1073 26.2062 15.0514 26.1484 14.9937 26.0889C14.4853 25.5816 14.0864 25.2814 13.3427 25.2731C12.6317 25.2873 12.2768 25.4499 11.7865 25.9588C11.3034 26.5445 11.2044 27.0958 11.2254 27.8486C11.2979 28.5282 11.6049 29.1093 12.1307 29.547C12.706 29.8905 13.2863 29.9674 13.9347 29.8201C14.492 29.6365 14.7706 29.3128 15.0835 28.8264C15.4337 29.088 15.782 29.3508 16.1209 29.6271C15.9322 30.1893 15.5156 30.5256 14.9996 30.7954C13.8945 31.2718 12.8448 31.2478 11.7173 30.8464C10.8989 30.4869 10.3542 29.8304 10.0033 29.0247C9.63238 28.0617 9.6463 27.0252 10.0379 26.066C10.4765 25.1564 11.1156 24.5601 12.0509 24.1821C12.9807 23.8641 14.1235 23.8919 15.0037 24.3423Z" fill="#393939"/>
<path d="M44.691 24.022C44.7436 24.022 44.7963 24.022 44.8506 24.022C45.612 25.5815 46.3672 27.1428 47.0911 28.7203C47.3522 29.2889 47.6208 29.8538 47.8918 30.4177C47.9224 30.4816 47.953 30.5456 47.9845 30.6114C48.0113 30.6672 48.0382 30.723 48.0658 30.7804C48.1226 30.9083 48.1226 30.9083 48.1226 30.9884C47.6222 30.9884 47.1219 30.9884 46.6063 30.9884C46.332 30.3978 46.332 30.3978 46.2458 30.2122C46.1095 29.9184 46.1095 29.9184 45.9679 29.6271C45.1515 29.6271 44.335 29.6271 43.4939 29.6271C43.2832 30.0763 43.0725 30.5255 42.8554 30.9884C42.3814 30.9884 41.9074 30.9884 41.4189 30.9884C41.8716 29.9539 42.3515 28.9355 42.8455 27.9205C42.8767 27.8563 42.908 27.792 42.9402 27.7258C43.0647 27.4701 43.1892 27.2144 43.3138 26.9586C43.5739 26.4245 43.8317 25.8894 44.0874 25.3532C44.1217 25.2815 44.156 25.2099 44.1914 25.136C44.3666 24.768 44.5338 24.3982 44.691 24.022ZM44.7708 26.6644C44.6654 26.8693 44.5608 27.0745 44.4565 27.28C44.4268 27.3377 44.397 27.3955 44.3663 27.455C44.3378 27.5115 44.3092 27.568 44.2798 27.6262C44.2403 27.7036 44.2403 27.7036 44.2 27.7825C44.112 27.9795 44.112 27.9795 44.0525 28.3459C44.5266 28.3459 45.0006 28.3459 45.489 28.3459C45.3755 28.0412 45.3755 28.0412 45.2596 27.7304C45.236 27.6671 45.2125 27.6039 45.1882 27.5387C45.0789 27.2459 44.9679 26.9541 44.8506 26.6644C44.8243 26.6644 44.7979 26.6644 44.7708 26.6644Z" fill="#393939"/>
<path d="M36.4717 24.1821C39.7228 24.1821 39.7228 24.1821 40.432 24.8681C40.9053 25.3783 40.9804 25.9021 40.9651 26.5846C40.9116 27.1131 40.7134 27.4851 40.3323 27.8505C39.5686 28.4667 38.7826 28.5061 37.8284 28.5061C37.8284 29.3252 37.8284 30.1444 37.8284 30.9884C37.3807 30.9884 36.933 30.9884 36.4717 30.9884C36.4717 28.7423 36.4717 26.4962 36.4717 24.1821ZM37.8284 25.2231C37.8284 25.9365 37.8284 26.65 37.8284 27.3851C38.6809 27.3856 38.6809 27.3856 39.3846 26.9647C39.5342 26.6895 39.5787 26.4981 39.5841 26.184C39.4948 25.9011 39.4121 25.6961 39.21 25.4783C38.7394 25.2358 38.3544 25.2231 37.8284 25.2231Z" fill="#393939"/>
<path d="M56.9014 24.182C57.1445 24.1625 57.3861 24.1483 57.6296 24.137C57.6979 24.131 57.7662 24.1249 57.8366 24.1187C58.0499 24.1113 58.2136 24.1183 58.4177 24.182C58.6331 24.3912 58.7566 24.6389 58.8965 24.9027C58.9868 25.0475 59.0781 25.1917 59.1702 25.3353C59.262 25.4829 59.3536 25.6307 59.4452 25.7785C59.4925 25.8541 59.5398 25.9297 59.5886 26.0076C59.6332 26.0797 59.6779 26.1518 59.7239 26.2261C59.7845 26.3236 59.7845 26.3236 59.8463 26.4231C59.934 26.5842 59.934 26.5842 59.934 26.7444C59.9867 26.7444 60.0393 26.7444 60.0936 26.7444C60.1147 26.6868 60.1359 26.6292 60.1577 26.5699C60.2551 26.3396 60.3698 26.1437 60.5048 25.9337C60.5536 25.8573 60.6024 25.7809 60.6527 25.7022C60.7036 25.6233 60.7544 25.5445 60.8069 25.4632C60.9074 25.3064 61.0079 25.1496 61.1083 24.9928C61.1751 24.8891 61.1751 24.8891 61.2433 24.7832C61.3748 24.5824 61.3748 24.5824 61.4844 24.359C61.6099 24.182 61.6099 24.182 61.7763 24.1366C61.8697 24.1397 61.8697 24.1397 61.965 24.1429C62.0326 24.1442 62.1003 24.1455 62.1699 24.1469C62.2754 24.1519 62.2754 24.1519 62.383 24.157C62.4543 24.1588 62.5255 24.1606 62.5989 24.1625C62.7748 24.1672 62.9504 24.1738 63.1262 24.182C63.0186 24.4733 62.8879 24.7259 62.7228 24.9884C62.6742 25.0661 62.6255 25.1438 62.5754 25.2239C62.5234 25.3062 62.4715 25.3885 62.4179 25.4732C62.3648 25.5579 62.3117 25.6425 62.257 25.7298C62.0949 25.9881 61.9323 26.2462 61.7695 26.5042C61.6287 26.7277 61.4879 26.9512 61.3471 27.1747C61.2644 27.3059 61.1816 27.437 61.0987 27.568C61.0618 27.6263 61.025 27.6846 60.987 27.7447C60.955 27.7954 60.9229 27.846 60.8898 27.8982C60.7058 28.1987 60.7144 28.47 60.7068 28.8144C60.7051 28.8764 60.7035 28.9384 60.7018 29.0022C60.6965 29.2005 60.6918 29.3987 60.6871 29.597C60.6837 29.7313 60.6802 29.8656 60.6767 29.9999C60.6681 30.3293 60.6602 30.6588 60.6522 30.9883C60.2309 30.9883 59.8095 30.9883 59.3753 30.9883C59.3798 30.796 59.3842 30.6037 59.3887 30.4056C59.4358 28.5094 59.4358 28.5094 58.5454 26.8997C58.3043 26.6065 58.1162 26.2774 57.9189 25.9537C57.8393 25.8262 57.7595 25.6989 57.6795 25.5718C57.6421 25.5122 57.6048 25.4527 57.5663 25.3914C57.4703 25.2393 57.3732 25.0878 57.2755 24.9368C57.2244 24.8578 57.1734 24.7789 57.1208 24.6975C57.0776 24.6314 57.0344 24.5652 56.9899 24.497C56.9014 24.3422 56.9014 24.3422 56.9014 24.182Z" fill="#393939"/>
</g>
<defs>
<clipPath id="clip0_3784_15747">
<rect width="102.402" height="31.0965" fill="white"/>
</clipPath>
</defs>
</svg>
