<svg width="117" height="30" viewBox="0 0 117 30" fill="none" xmlns="http://www.w3.org/2000/svg">
<path d="M2.73291 6.63672H17.3658L17.2519 7.14915L16.7964 8.23096L16.3409 9.14195L15.7715 10.0529L15.2591 10.7362L14.5758 11.5333L14.0065 12.1027L13.2093 12.729L12.4692 13.1845L11.5582 13.64L9.96393 14.2663L8.02806 15.0065L6.60464 15.6328L5.6367 16.1452L5.06733 16.6007L4.5549 17.0562L3.92859 17.8533L3.35922 18.7643L2.90372 19.6753L2.78985 19.96H2.73291V6.63672Z" fill="#393939"/>
<path d="M17.8213 8.34473H17.8783V21.7819L17.8213 21.8388H5.35209L3.18848 21.7819L3.64397 20.4154L4.09947 19.5044L4.55497 18.7073L5.18128 17.9102L5.75065 17.3408L6.37696 16.8853L7.28795 16.4298L8.5975 15.8604L11.3874 14.7786L12.7539 14.1523L13.7788 13.526L14.5759 12.8997L15.6577 11.8179L16.3979 10.85L16.9673 9.9959L17.7074 8.62941L17.8213 8.34473Z" fill="#393939"/>
<path d="M49.0228 6.52283H49.9907L51.1864 6.69364L52.1543 6.97832L53.1223 7.49076L53.8055 8.00319L54.5457 8.74338L55.0581 9.5405L55.172 9.88212L54.5457 10.2807L53.7486 10.85L53.0084 11.3625L52.8376 11.1917L52.439 10.5084L51.8127 9.88212L50.9586 9.42662L50.1046 9.19887H48.7381L48.0549 9.36968L47.3147 9.76824L46.7453 10.2237L46.3467 10.6792L45.8343 11.5333L45.5496 12.2735L45.3219 13.2983L45.2649 14.2663L45.3788 15.3481L45.7204 16.4868L46.1759 17.3409L46.6314 17.9103L47.0869 18.3658L47.8271 18.8212L48.5103 19.1059L49.1936 19.2198H49.706L50.674 19.049L51.585 18.6504L52.1543 18.1949L52.6098 17.6825L53.0084 16.9993L53.35 17.1131L54.8304 17.9672L55.3997 18.3088L55.3428 18.5935L54.8873 19.3337L54.3749 19.9031L53.8055 20.4155L52.8945 20.9849L51.9835 21.3834L51.0725 21.6681L49.9907 21.8389H48.852L47.7702 21.6681L46.6884 21.2695L45.8912 20.814L45.208 20.3016L44.6386 19.7892L44.2401 19.3906L43.6138 18.5366L43.1583 17.7394L42.7597 16.8284L42.475 15.8605L42.3042 14.8356V13.2983L42.475 12.2735L42.7597 11.3055L43.2152 10.2807L43.7276 9.48356L44.1831 8.91419L44.5817 8.45869L45.208 7.94626L45.7774 7.5477L46.4606 7.14914L47.3716 6.80751L48.3965 6.57976L49.0228 6.52283Z" fill="#393939"/>
<path d="M88.8788 6.97827H91.7257V10.5653H94.0601V12.7859H91.7257L91.7826 18.5934L91.9534 18.9351L92.2381 19.1628L92.4089 19.2198H93.263L94.0031 18.992L94.3448 18.8781L94.4586 19.2198L94.9141 21.0417V21.1556L93.8893 21.5542L92.8075 21.8389L92.4089 21.8958H91.2702L90.473 21.725L89.9037 21.4403L89.4482 21.0417L89.1066 20.4724L88.9357 20.0169L88.8788 19.6753V12.7859H87.4554L87.3984 12.7289V10.7931L87.4554 10.5653H88.8788V6.97827Z" fill="#393939"/>
<path d="M108.636 6.18115H111.426L111.483 6.4089V17.8533L111.54 18.5365L111.767 18.992L112.109 19.2198L112.394 19.2767H112.849L113.76 19.0489L113.931 19.9599L114.102 20.9848V21.3264L113.589 21.5542L112.678 21.7819L111.767 21.8958H111.084L110.23 21.725L109.547 21.3834L109.148 20.9848L108.863 20.5293L108.693 20.0169L108.636 19.7322V6.18115Z" fill="#393939"/>
<path d="M82.8433 10.5653H85.6901V21.725H82.8433V10.5653Z" fill="#393939"/>
<path d="M77.377 10.6221L78.2881 11.0781L78.8008 11.4189L79.3701 11.9316L79.8262 12.4443L80.2812 13.2412L80.5654 13.8682L80.8506 14.8359L80.9648 15.7471V16.6006L80.7939 17.7959L80.3955 18.9922L79.8828 19.9033L79.2559 20.6436L78.6299 21.1553L77.9463 21.5547L77.0928 21.8389L76.8076 21.8955H75.3281L74.417 21.668L73.7334 21.3262L72.9932 20.7568L72.5381 20.2451L72.3096 19.9033L72.2529 26.2227H69.4062V10.5654H71.8545L71.9111 10.6221L71.9688 12.3301L72.6514 11.5332L73.335 11.0205L74.1318 10.6221L75.0996 10.3945H76.4092L77.377 10.6221ZM74.7012 12.7861L74.3594 12.8428L73.7334 13.0703L73.1074 13.4688L72.6514 13.9248L72.2529 14.6074V17.3408L72.5947 18.0244L73.0498 18.5361L73.6201 19.0488L74.1318 19.334L74.7012 19.5049H75.5557L75.8398 19.4473L76.4092 19.2197L76.9785 18.8213L77.4912 18.1953L77.833 17.5117L78.0605 16.5439V15.7471L77.9473 15.1201L77.6621 14.4375L77.2637 13.8105L76.751 13.3555L76.1816 13.0137L75.2705 12.7861H74.7012Z" fill="#393939"/>
<path d="M32.8525 6.80762L33.4219 7.0918L33.9912 7.54785L34.3896 8.00293L34.8457 8.80078L35.1299 9.76855V11.1914L34.8457 12.1025L34.5605 12.6719L34.1621 13.1846L33.6494 13.6396L33.0801 13.9814L33.7637 14.2666L34.333 14.6084L34.9023 15.1201L35.3008 15.6895L35.5859 16.3164L35.7568 16.999L35.8135 17.3975V18.1953L35.6426 19.0488L35.2441 19.8457L34.7314 20.415L34.2764 20.8145L33.4219 21.2695L32.5107 21.5547L31.9414 21.668L31.2588 21.7246H23.6289V6.63672H32.2266L32.8525 6.80762ZM26.5898 19.2197H31.3154L31.8281 19.0488L32.2832 18.707L32.625 18.252L32.8525 17.626V16.8857L32.625 16.2021L32.2266 15.6895L31.7139 15.3477L31.2588 15.2344H26.5898V19.2197ZM26.5898 9.1416V12.957H30.6318L31.1445 12.8428L31.5996 12.6152L32.0557 12.1025L32.2832 11.4189V10.6221L32.2266 10.3379L31.999 9.8252L31.5996 9.42676L31.0303 9.1416H26.5898Z" fill="#393939"/>
<path d="M63.4282 10.5654L64.2817 10.8496L64.9087 11.1914L65.478 11.6475L65.9331 12.1592L66.3882 13.0137L66.6167 13.8682L66.6733 14.2666L66.73 18.707L66.9009 19.1055L67.4702 19.334V21.5547L67.4136 21.7246L66.8442 21.8389H65.6479L65.1362 21.668L64.7944 21.4404L64.5093 21.0986L64.3394 20.6436L64.2251 20.0166L63.5991 20.7002L62.8013 21.2695L61.8901 21.668L60.98 21.8955H59.4995L58.645 21.668L57.9624 21.3262L57.3921 20.8711L56.9937 20.415L56.6528 19.7891L56.4243 19.1055L56.3677 18.1953L56.4819 17.5117L56.7661 16.8281L57.3354 16.0879L58.019 15.5762L58.8159 15.1777L59.5562 14.9492L60.1821 14.8359H62.061L63.0298 15.0068L63.8267 15.2344L63.769 14.0381L63.5415 13.4121L63.1997 12.957L62.688 12.6152L62.1187 12.4443L61.1509 12.3877L60.2964 12.501L59.3853 12.7861L58.1899 13.4121L57.9624 13.583H57.8481L57.1646 12.2168L56.9937 11.8184L57.5063 11.4766L58.4175 11.0205L59.3286 10.6797L60.353 10.4512L60.8091 10.3945H62.4595L63.4282 10.5654ZM60.5806 16.4863L59.8979 16.7715L59.3853 17.2266L59.1577 17.626L59.0435 18.0811L59.1577 18.7646L59.4995 19.2764L59.9546 19.6182L60.5806 19.8457H61.4917L62.2319 19.6748L62.8589 19.3906L63.4282 18.9355L63.8267 18.4229V16.8281L63.4849 16.6572L62.4028 16.4297L61.3784 16.373L60.5806 16.4863Z" fill="#393939"/>
<path d="M102.658 10.5654L103.511 10.8496L104.138 11.1914L104.708 11.6475L105.163 12.1592L105.618 13.0703L105.846 13.8682L105.903 14.3232L105.959 18.707L106.13 19.1055L106.7 19.334L106.643 21.7246L106.074 21.8389H104.877L104.308 21.668L103.796 21.2129L103.569 20.7002L103.455 20.0166L102.885 20.6436L102.202 21.1553L101.291 21.6113L100.494 21.8389L100.152 21.8955H98.729L97.8745 21.668L97.1919 21.3262L96.6792 20.9277L96.1665 20.3584L95.7681 19.5615L95.5972 18.7646V18.0811L95.8247 17.1699L96.1665 16.5439L96.6792 15.9746L97.4194 15.4619L98.2163 15.1201L99.0708 14.8926L99.4116 14.8359H101.291L102.487 15.0635L103.056 15.2344L102.999 14.0957L102.771 13.4121L102.373 12.8994L101.917 12.6152L101.291 12.4443L100.38 12.3877L99.4692 12.501L98.6147 12.7861L97.7036 13.2412L97.1919 13.583L97.021 13.5264L96.2231 11.875L96.5083 11.5898L97.5903 11.0205L98.7856 10.6221L99.5825 10.4512L100.039 10.3945H101.689L102.658 10.5654ZM100.039 16.4297L99.6401 16.5439L98.9565 16.8857L98.4438 17.4551L98.2729 18.0244L98.3306 18.6504L98.5015 18.9922L98.729 19.2764L99.1841 19.6182L99.811 19.8457H100.665L101.461 19.6748L102.259 19.2764L102.829 18.707L103.056 18.3652V16.8281L102.658 16.6572L101.632 16.4297L100.608 16.373L100.039 16.4297Z" fill="#393939"/>
<path d="M82.8433 6.18115H85.6901V9.02801H82.8433V6.18115Z" fill="#393939"/>
</svg>
