<svg width="109" height="28" viewBox="0 0 109 28" fill="none" xmlns="http://www.w3.org/2000/svg">
<path d="M2.54785 6.18738H16.1898L16.0836 6.66511L15.659 7.67366L15.2343 8.52296L14.7035 9.37227L14.2258 10.0092L13.5888 10.7524L13.058 11.2832L12.3148 11.8671L11.6248 12.2917L10.7755 12.7164L9.2892 13.3003L7.48443 13.9904L6.15739 14.5742L5.25501 15.052L4.72419 15.4766L4.24646 15.9013L3.66256 16.6444L3.13175 17.4937L2.7071 18.343L2.60093 18.6084H2.54785V6.18738Z" fill="#F5F5F5"/>
<path d="M16.6146 7.77979H16.6677V20.307L16.6146 20.3601H4.98975L2.97266 20.307L3.39731 19.0331L3.82196 18.1837L4.24661 17.4406L4.83051 16.6975L5.36132 16.1667L5.94522 15.742L6.79452 15.3174L8.01539 14.7865L10.6164 13.778L11.8903 13.1941L12.8458 12.6102L13.5889 12.0263L14.5975 11.0178L15.2876 10.1154L15.8184 9.31915L16.5084 8.04519L16.6146 7.77979Z" fill="#F5F5F5"/>
<path d="M45.7031 6.08118H46.6054L47.7202 6.24042L48.6225 6.50583L49.5249 6.98356L50.1619 7.46129L50.852 8.15135L51.3297 8.89449L51.4359 9.21298L50.852 9.58455L50.1088 10.1154L49.4188 10.5931L49.2595 10.4339L48.888 9.79688L48.3041 9.21298L47.5078 8.78833L46.7116 8.57601H45.4377L44.8007 8.73525L44.1106 9.10682L43.5798 9.53147L43.2082 9.95612L42.7305 10.7523L42.4651 11.4424L42.2528 12.3979L42.1997 13.3003L42.3059 14.3088L42.6243 15.3704L43.049 16.1667L43.4736 16.6975L43.8983 17.1221L44.5884 17.5468L45.2253 17.8122L45.8623 17.9183H46.34L47.2424 17.7591L48.0917 17.3875L48.6225 16.9629L49.0472 16.4851L49.4188 15.8482L49.7373 15.9543L51.1174 16.7505L51.6482 17.069L51.5951 17.3344L51.1705 18.0245L50.6927 18.5553L50.1619 19.0331L49.3126 19.5639L48.4633 19.9354L47.614 20.2008L46.6054 20.3601H45.5438L44.5353 20.2008L43.5267 19.8293L42.7836 19.4046L42.1466 18.9269L41.6158 18.4492L41.2442 18.0776L40.6603 17.2814L40.2357 16.5382L39.8641 15.6889L39.5987 14.7865L39.4395 13.8311V12.3979L39.5987 11.4424L39.8641 10.54L40.2888 9.58455L40.7665 8.84141L41.1911 8.3106L41.5627 7.88595L42.1466 7.40821L42.6774 7.03664L43.3144 6.66507L44.1637 6.34658L45.1192 6.13426L45.7031 6.08118Z" fill="#F5F5F5"/>
<path d="M82.8601 6.50586H85.5142V9.84999H87.6905V11.9202H85.5142L85.5673 17.3345L85.7265 17.653L85.9919 17.8653L86.1511 17.9184H86.9474L87.6374 17.706L87.9559 17.5999L88.0621 17.9184L88.4867 19.617V19.7231L87.5313 20.0947L86.5227 20.3601L86.1511 20.4132H85.0895L84.3464 20.254L83.8156 19.9885L83.3909 19.617L83.0724 19.0862L82.9132 18.6615L82.8601 18.343V11.9202H81.5331L81.48 11.8671V10.0623L81.5331 9.84999H82.8601V6.50586Z" fill="#F5F5F5"/>
<path d="M101.279 5.7627H103.88L103.933 5.97502V16.6444L103.986 17.2814L104.199 17.706L104.517 17.9183L104.783 17.9714H105.207L106.057 17.7591L106.216 18.6084L106.375 19.5639V19.8824L105.897 20.0947L105.048 20.307L104.199 20.4132H103.562L102.766 20.2539L102.129 19.9354L101.757 19.5639L101.492 19.1392L101.332 18.6615L101.279 18.3961V5.7627Z" fill="#F5F5F5"/>
<path d="M77.2334 9.84998H79.8875V20.2539H77.2334V9.84998Z" fill="#F5F5F5"/>
<path d="M72.1377 9.90259L72.9863 10.3274L73.4648 10.6458L73.9951 11.1243L74.4199 11.6018L74.8447 12.345L75.1104 12.929L75.375 13.8313L75.4814 14.6799V15.4768L75.3223 16.5911L74.9512 17.7063L74.4727 18.5549L73.8887 19.2454L73.3057 19.7229L72.668 20.095L71.8721 20.3596L71.6064 20.4133H70.2266L69.377 20.2004L68.7402 19.8821L68.0498 19.3518L67.625 18.8743L67.4131 18.5549L67.3604 24.4475H64.7061V9.84985H66.9883L67.042 9.90259L67.0947 11.4954L67.7314 10.7522L68.3682 10.2747L69.1113 9.90259L70.0137 9.69067H71.2354L72.1377 9.90259ZM69.6426 11.9202L69.3242 11.9729L68.7402 12.1858L68.1562 12.5569L67.7314 12.9817L67.3604 13.6184V16.1663L67.6787 16.804L68.1035 17.2815L68.6338 17.759L69.1113 18.0247L69.6426 18.1838H70.4385L70.7041 18.1311L71.2354 17.9182L71.7656 17.5471L72.2432 16.9631L72.5625 16.3254L72.7744 15.4231V14.6799L72.668 14.0969L72.4023 13.4592L72.0312 12.8752L71.5537 12.4514L71.0225 12.1321L70.1738 11.9202H69.6426Z" fill="#F5F5F5"/>
<path d="M30.6284 6.34656L31.1587 6.61218L31.6899 7.03699L32.061 7.46179L32.4858 8.20496L32.7515 9.1073V10.4335L32.4858 11.2831L32.2202 11.8143L31.8491 12.2919L31.3716 12.7167L30.8403 13.035L31.4771 13.3007L32.0083 13.619L32.5386 14.0966L32.9106 14.6278L33.1763 15.2108L33.3354 15.8485L33.3882 16.2196V16.9628L33.229 17.7587L32.8579 18.5018L32.3794 19.0331L31.9546 19.4042L31.1587 19.829L30.3091 20.0946L29.7788 20.201L29.1421 20.2538H22.0288V6.18738H30.0444L30.6284 6.34656ZM24.7886 17.9178H29.1948L29.6724 17.7587L30.0972 17.4403L30.4155 17.0155L30.6274 16.4325V15.7421L30.4155 15.1053L30.0435 14.6268L29.5659 14.3085L29.1411 14.203H24.7886V17.9178ZM24.7886 8.52332V12.079H28.5571L29.0356 11.9735L29.4595 11.7606L29.8843 11.2831L30.0972 10.6464V9.9032L30.0435 9.63757L29.8315 9.16003L29.4595 8.78796L28.9292 8.52332H24.7886Z" fill="#F5F5F5"/>
<path d="M59.1323 9.84985L59.9282 10.1155L60.5122 10.4338L61.0435 10.8586L61.4683 11.3362L61.8931 12.1321L62.105 12.929L62.1577 13.3L62.2114 17.4407L62.3706 17.8118L62.9009 18.0247V20.095L62.8481 20.2542L62.3169 20.3596H61.2026L60.7251 20.2004L60.4067 19.9885L60.1411 19.6702L59.9819 19.2454L59.8755 18.6614L59.2915 19.2981L58.5483 19.8293L57.6987 20.2004L56.8501 20.4133H55.4702L54.6733 20.2004L54.0366 19.8821L53.5054 19.4573L53.1343 19.0334L52.8159 18.4495L52.603 17.8118L52.5503 16.9631L52.6567 16.3254L52.9214 15.6887L53.4526 14.9993L54.0894 14.5208L54.8325 14.1497L55.5229 13.9368L56.1069 13.8313H57.8589L58.7612 13.9905L59.5044 14.2024L59.4507 13.0881L59.2388 12.5042L58.9204 12.0793L58.4419 11.761L57.9116 11.6018L57.0093 11.5481L56.2134 11.6545L55.3638 11.9202L54.2485 12.5042L54.0366 12.6633H53.9302L53.2935 11.3889L53.1343 11.0178L53.6118 10.6995L54.4614 10.2747L55.3101 9.9563L56.2661 9.74341L56.6909 9.69067H58.23L59.1323 9.84985ZM56.479 15.3704L55.8413 15.636L55.3638 16.0608L55.1519 16.4319L55.0454 16.8567L55.1519 17.4934L55.4702 17.9709L55.895 18.2903L56.479 18.5022H57.3276L58.0181 18.343L58.6021 18.0774L59.1333 17.6526L59.5044 17.175V15.6887L59.186 15.5295L58.1772 15.3176L57.2222 15.2639L56.479 15.3704Z" fill="#F5F5F5"/>
<path d="M95.7056 9.84985L96.5015 10.1155L97.0854 10.4338L97.6167 10.8586L98.0415 11.3362L98.4663 12.1858L98.6782 12.929L98.731 13.3538L98.7847 17.4407L98.9438 17.8118L99.4741 18.0247L99.4214 20.2542L98.8901 20.3596H97.7759L97.2446 20.2004L96.7671 19.7766L96.5552 19.2981L96.4487 18.6614L95.9175 19.2454L95.2808 19.7229L94.4321 20.1477L93.689 20.3596L93.3696 20.4133H92.0435L91.2466 20.2004L90.6099 19.8821L90.1323 19.511L89.6548 18.9797L89.2827 18.2366L89.1235 17.4934V16.8567L89.3354 16.0071L89.6548 15.4231L90.1323 14.8928L90.8218 14.4153L91.5649 14.0959L92.3618 13.884L92.6802 13.8313H94.4321L95.5464 14.0432L96.0776 14.2024L96.0239 13.1409L95.812 12.5042L95.4399 12.0266L95.0151 11.761L94.4321 11.6018L93.5825 11.5481L92.7329 11.6545L91.937 11.9202L91.0874 12.345L90.6099 12.6633L90.4507 12.6106L89.7075 11.0706L89.9731 10.8049L90.981 10.2747L92.0962 9.90259L92.8394 9.74341L93.2642 9.69067H94.8032L95.7056 9.84985ZM93.2642 15.3176L92.8921 15.4231L92.2554 15.7424L91.7778 16.2727L91.6187 16.804L91.6714 17.3879L91.8306 17.7063L92.0435 17.9709L92.4683 18.2903L93.0513 18.5022H93.8481L94.5913 18.343L95.3345 17.9709L95.8647 17.4407L96.0776 17.1223V15.6887L95.7056 15.5295L94.7505 15.3176L93.7944 15.2639L93.2642 15.3176Z" fill="#F5F5F5"/>
<path d="M77.2334 5.7627H79.8875V8.41677H77.2334V5.7627Z" fill="#F5F5F5"/>
</svg>
