<svg width="139" height="39" viewBox="0 0 139 39" fill="none" xmlns="http://www.w3.org/2000/svg">
<g clip-path="url(#clip0_3784_15605)">
<path d="M94.1803 8.52454C95.8837 8.61908 99.5221 8.33659 100.873 8.94103C101.466 9.20861 101.929 9.69937 102.161 10.3065C102.407 10.9614 102.428 12.2278 102.111 12.8621C101.555 13.9763 100.715 14.2825 99.6734 14.6768C100.379 15.8548 101.099 17.0239 101.834 18.1837C102.233 18.8137 103.178 20.0907 103.365 20.7348C102.343 20.5736 101.176 20.6559 100.138 20.697C99.9802 20.3105 99.5792 19.714 99.3745 19.3157C98.6722 17.9504 97.4438 16.1704 96.8715 14.8017C96.911 16.7198 96.8697 18.7784 96.874 20.71C95.8284 20.618 95.2088 20.644 94.1699 20.6961L94.1803 8.52454ZM96.8618 14.2589C97.4542 14.2364 98.3138 14.2658 98.7506 13.7995C98.8077 13.7378 98.8618 13.6737 98.9134 13.6074C99.719 12.6089 99.8557 10.7666 98.9219 9.82855C98.0902 9.54346 97.7312 9.54613 96.8649 9.55828L96.8618 14.2589Z" fill="#F5F5F5"/>
<path d="M59.3481 8.55405C59.7332 8.54475 60.8969 8.46402 61.1461 8.70379C63.7774 11.2355 66.1347 14.1052 68.6533 16.7406C68.5825 14.1295 68.6393 11.1977 68.64 8.56318C69.2325 8.60604 69.5174 8.62041 70.1012 8.53751C70.1383 9.43542 70.1055 10.572 70.1049 11.4854L70.1043 17.1987C70.1043 17.9285 70.2149 20.0925 70.1091 20.67C69.9591 20.7654 69.761 20.7226 69.5776 20.7061L68.5568 20.6662C68.0845 20.0854 67.4861 19.5455 67.0065 18.9677C65.0411 16.5999 62.6303 14.3919 60.6684 12.0557L60.7158 12.2768C60.8529 12.9437 60.8635 20.3572 60.7019 20.6019C60.4127 20.6703 59.5701 20.6528 59.2173 20.6604C59.3297 20.0622 59.2871 18.0463 59.2865 17.3003L59.2806 10.6501C59.2802 10.2783 59.2392 8.8218 59.3481 8.55405Z" fill="#F5F5F5"/>
<path d="M109.747 8.41482C110.264 8.43849 110.588 8.44385 111.103 8.40857C111.482 8.96814 111.68 9.64208 111.943 10.2777L113.265 13.5172L114.966 17.7673C115.268 18.5137 115.964 19.9989 116.045 20.7341C114.991 20.5848 114.079 20.6517 113.024 20.7019C112.582 19.5085 112.251 18.2489 111.771 17.0889C111.614 16.9597 111.56 17.0007 111.316 16.9893C110.272 16.9849 108.758 16.9415 107.749 17.0476C107.478 17.5428 106.667 20.044 106.492 20.6605C105.897 20.638 105.377 20.6055 104.786 20.6854C105.028 19.7475 105.828 17.9564 106.224 16.9721C107.372 14.1177 108.625 11.2786 109.747 8.41482ZM108.21 15.85C108.704 15.8762 109.197 15.8859 109.691 15.8794C110.255 15.8755 110.783 15.8737 111.347 15.8327C111.056 15.3266 110.056 12.4822 109.85 11.8535C109.319 13.0188 108.745 14.606 108.21 15.85Z" fill="#F5F5F5"/>
<path d="M76.8341 8.26024C77.4635 8.16096 79.7368 8.33348 80.0789 9.0995C80.2398 9.45963 79.7004 10.5538 79.5072 10.943C78.7289 10.0741 78.5686 9.35383 77.1707 9.32522C76.1506 9.30433 75.3402 10.0589 75.3323 11.07C75.3226 12.2709 77.2654 12.8443 78.099 13.3858C79.4428 14.1933 80.7319 15.0653 80.7593 16.8116C80.803 19.6013 78.7326 20.7954 76.2454 20.8932C75.5808 20.9538 73.6106 20.734 73.2127 20.1469C73.1902 20.0631 73.6556 18.1816 73.7188 17.9309L73.8117 17.9047C74.3317 18.0948 74.206 18.626 74.4867 18.9176C75.8852 20.3679 77.5522 20.0837 78.5157 18.4707C78.5515 16.6047 77.6779 16.4712 76.1494 15.6917C74.1951 14.6947 73.1526 14.0893 73.3214 11.684C73.4806 9.41359 74.7206 8.4914 76.8341 8.26024Z" fill="#F5F5F5"/>
<path d="M42.7091 8.55087C44.7908 8.43376 47.2705 8.63939 49.454 8.51578C49.4206 9.18893 49.3843 9.47009 49.4552 10.1481C48.3672 9.84204 46.5893 9.87016 45.4299 9.87161C45.4931 10.8571 45.4572 12.6238 45.3918 13.5915C46.7287 13.6127 48.0701 13.6471 49.3875 13.4239C49.3666 13.9555 49.3688 14.4878 49.3941 15.0192C49.0273 14.9651 48.4864 14.9323 48.1046 14.8969C47.2114 14.8392 46.3156 14.8312 45.4214 14.873C45.5143 16.3961 45.47 19.1384 45.4407 20.6952C44.3646 20.6433 43.7885 20.6141 42.7055 20.7286C42.6935 16.6967 42.6666 12.5781 42.7091 8.55087Z" fill="#F5F5F5"/>
<path d="M117.545 8.54752C120.528 8.5678 123.74 8.60207 126.711 8.52942C126.685 9.08353 126.669 9.5276 126.69 10.0805C125.534 9.94291 124.673 9.84622 123.501 9.82952V17.5589L123.514 20.7439C122.57 20.579 121.782 20.6463 120.836 20.7021L120.84 9.8277C119.74 9.79405 118.636 9.94911 117.542 10.0757C117.574 9.50762 117.57 9.11721 117.545 8.54752Z" fill="#F5F5F5"/>
<path d="M82.5 8.52604C84.7976 8.62209 87.1511 8.51359 89.4536 8.55309C90.1589 8.56517 90.9311 8.56451 91.6291 8.51074C91.5981 9.09968 91.5811 9.50678 91.6164 10.0923C90.4919 9.91706 89.5763 9.85905 88.4439 9.81818C88.4743 12.4151 88.4464 15.0784 88.447 17.6803L88.4488 20.6944C87.4537 20.6262 86.7951 20.6469 85.8079 20.6947C85.8273 17.1122 85.7387 13.3883 85.8195 9.82219C84.8857 9.80384 83.4046 9.90612 82.4951 10.1114C82.5285 9.50806 82.5322 9.12883 82.5 8.52604Z" fill="#F5F5F5"/>
<path d="M55.2331 8.50647L55.2948 8.54873C55.3602 8.85396 55.3379 11.6333 55.3358 12.0983C55.3226 14.9709 55.3601 17.8696 55.325 20.7401C54.3829 20.5947 53.6762 20.649 52.7335 20.6964L52.6322 20.6302L52.6291 13.0727C52.6291 11.6103 52.5955 9.97908 52.6487 8.52857C53.8054 8.62432 54.075 8.67221 55.2331 8.50647Z" fill="#F5F5F5"/>
<path d="M43.8437 23.4269C44.041 23.425 44.3441 23.3927 44.5272 23.4628C44.9461 23.6228 46.51 27.1796 46.8252 27.8549C47.3024 26.9203 47.7849 25.9421 48.266 25.009C48.624 24.3144 48.8073 23.1291 49.8046 23.4835C50.0849 23.813 50.3042 27.764 50.494 28.3967C50.5612 28.6206 50.6879 29.7216 50.7065 29.9788C50.2133 29.895 49.6478 29.9178 49.1508 29.9363C49.0293 28.9354 48.9253 27.9326 48.8388 26.9282C48.7792 26.4729 48.7695 26.1019 48.689 25.6157C48.4332 26.2195 46.9934 29.457 46.6879 29.7177C46.5549 29.8311 46.4877 29.8249 46.3243 29.8107C45.8319 29.5195 44.498 26.3443 44.1646 25.6538C44.1375 26.8139 43.8705 27.9791 43.8176 29.1406C43.8071 29.3726 43.8246 29.799 43.6807 29.9539C43.4164 29.9016 43.1103 29.9547 42.9224 29.8356C42.9479 29.425 43.2767 27.5366 43.3689 26.9953C43.4999 26.2259 43.6681 24.0432 43.8437 23.4269Z" fill="#F5F5F5"/>
<path d="M101.562 23.4307C101.797 23.4314 102.033 23.4382 102.268 23.451C102.447 23.6592 103.078 29.2624 103.164 29.9486C102.667 29.9025 102.088 29.9115 101.591 29.9443C101.489 28.7877 101.422 27.7606 101.286 26.5925C101.241 26.2836 101.24 25.863 101.229 25.5432C100.624 26.5724 99.8623 28.7246 99.1333 29.7399C99.0531 29.8516 98.914 29.8279 98.7992 29.8145C98.3551 29.5272 96.9499 26.3093 96.7215 25.6661C96.4803 26.5461 96.2968 29.0525 96.2859 29.9845C95.9706 29.9333 95.7604 29.9343 95.4214 29.8625C95.4548 29.2337 96.2798 23.6225 96.3886 23.4389C96.6012 23.4305 97.0757 23.3783 97.199 23.5768C97.9979 24.8616 98.5155 26.5025 99.3514 27.7635C99.6515 27.1147 100.036 26.4032 100.36 25.7558C100.718 25.0407 101.142 24.0914 101.562 23.4307Z" fill="#F5F5F5"/>
<path d="M62.0381 23.4438C62.2979 23.4248 62.5941 23.379 62.8524 23.4028C63.3219 23.4461 66.6028 27.1973 67.1336 27.8115C67.1263 26.3511 67.129 24.8906 67.1417 23.4302L67.9187 23.4359L67.9227 27.6731C67.9242 28.2396 67.9563 29.411 67.8981 29.9219L67.8038 29.9969C67.3464 29.9693 67.0891 29.9575 66.7583 29.609C65.7729 28.5709 64.8521 27.4714 63.8572 26.4403C63.4915 26.0614 63.1573 25.7022 62.8854 25.2489C62.8214 26.6906 62.8611 28.4379 62.8619 29.9019C62.6385 29.8936 62.2723 29.9216 62.0383 29.9324L62.0381 23.4438Z" fill="#F5F5F5"/>
<path d="M113.013 23.4116C113.308 23.4081 113.616 23.4178 113.913 23.4226C114.193 23.6064 114.804 24.2969 115.057 24.5598C116.072 25.6144 117.025 26.7404 118.049 27.7863C118.022 27.3088 117.974 23.6842 118.105 23.4988C118.289 23.4043 118.578 23.4317 118.794 23.435C118.875 24.2915 118.796 25.6535 118.822 26.5588C118.851 27.6195 118.836 28.8304 118.81 29.8977C118.81 29.9334 118.75 29.9689 118.714 29.9987C118.469 29.9778 118.183 29.9726 117.969 29.8397C117.367 29.4661 114.415 26.063 113.79 25.3517C113.779 26.879 113.781 28.4064 113.794 29.9337C113.493 29.9057 113.303 29.9124 112.999 29.9255C113.027 27.7596 112.971 25.585 113.013 23.4116Z" fill="#F5F5F5"/>
<path d="M82.6245 23.259C83.8328 23.1128 84.4585 23.3145 85.566 23.7482C85.4913 24.1636 85.4354 24.4014 85.3115 24.8046C84.7672 24.3639 84.1457 23.8573 83.4185 23.8188C80.5097 23.6832 79.966 29.3121 83.0424 29.4776C84.6937 29.5664 84.2289 28.3106 84.224 27.0848L84.2483 27.0278C84.3862 26.9453 85.4057 26.9572 85.7234 26.9317C85.7368 27.8309 85.7434 28.7301 85.7447 29.6294C85.2295 29.7919 84.5843 29.9279 84.0521 30.0071C82.1263 30.2934 79.6573 29.6502 79.3834 27.3738C79.1075 25.0814 80.342 23.5589 82.6245 23.259Z" fill="#F5F5F5"/>
<path d="M55.9105 23.3146C56.1293 23.2976 56.2932 23.2685 56.4994 23.3465C56.82 23.6139 59.021 29.2767 59.1444 29.9685C58.6034 29.8903 58.0676 29.9208 57.5258 29.9613C57.3699 29.407 57.1889 28.6171 56.9044 28.1053C56.8247 27.9619 56.7302 27.979 56.5699 27.9527C55.9533 27.9459 55.3116 27.9567 54.693 27.9591C54.5646 28.3634 54.4855 28.7902 54.3543 29.1935C54.1096 29.9459 53.7563 29.923 53.0923 29.9209C53.3794 29.1178 55.5771 23.6654 55.9105 23.3146ZM54.9513 27.3474L55.9448 27.3597L56.6689 27.3362C56.385 26.8183 55.9486 25.447 55.8118 25.2848C55.5962 25.8349 55.2116 26.8895 54.9513 27.3474Z" fill="#F5F5F5"/>
<path d="M73.5615 23.29C74.2474 23.321 74.2929 23.3378 74.5529 24.0124C75.3178 25.9963 76.1714 27.9733 76.9004 29.9675C76.3573 29.889 75.7054 29.9245 75.1592 29.948C75.0353 29.4481 74.8282 28.1142 74.3191 27.959C73.6301 27.9404 73.0226 27.9605 72.3355 27.9859C72.0706 28.7572 72.0913 29.1528 71.6587 29.9116C71.3592 29.8966 71.03 29.9153 70.728 29.9257C71.6837 28.0567 72.5718 25.0121 73.5615 23.29ZM72.6775 27.3575L73.6271 27.3592L74.3178 27.3395C74.09 26.9113 73.6447 25.5128 73.4697 25.3882C73.1751 26.0611 72.9206 26.66 72.6775 27.3575Z" fill="#F5F5F5"/>
<path d="M89.0632 23.4193L92.7132 23.4205L92.6937 24.2595C92.0412 24.1667 91.1743 24.1443 90.5182 24.1389L90.5225 26.106C91.2624 26.1017 91.8857 26.0879 92.6251 26.0377L92.6336 26.8793C91.9258 26.755 91.232 26.7657 90.5176 26.7693L90.52 27.4745L90.5212 29.2036C91.3699 29.2086 91.8499 29.1839 92.6846 29.0409L92.7387 29.8813C91.6652 29.8619 90.11 29.8327 89.0571 29.9005L89.0632 23.4193Z" fill="#F5F5F5"/>
<path d="M106.256 23.4245C107.422 23.4025 108.652 23.4233 109.823 23.4239C109.799 23.692 109.793 23.9831 109.782 24.2538C109.127 24.1588 108.333 24.1459 107.67 24.1434C107.671 24.795 107.685 25.4464 107.708 26.0975C108.382 26.1124 109.056 26.0924 109.727 26.0376V26.8623C108.996 26.7635 108.409 26.7667 107.68 26.7747L107.689 27.7211L107.682 29.1967C108.461 29.2096 109.005 29.129 109.746 29.1129C109.77 29.3318 109.782 29.5606 109.81 29.7751C109.574 29.9381 106.724 29.8825 106.169 29.8946C106.236 28.2309 106.188 26.5716 106.196 24.9072C106.199 24.4431 106.174 23.8743 106.256 23.4245Z" fill="#F5F5F5"/>
<path d="M121.758 23.4325C123.23 23.3704 125.181 23.4134 126.677 23.4305C126.642 23.7577 126.622 23.9178 126.652 24.2526C126.024 24.1886 125.563 24.1467 124.926 24.1421V28.3547C124.924 28.8819 124.94 29.4281 124.948 29.9569C124.426 29.9006 123.979 29.9275 123.458 29.9654L123.468 24.1507C122.886 24.1175 122.336 24.1735 121.76 24.2425C121.767 23.9765 121.761 23.6995 121.758 23.4325Z" fill="#F5F5F5"/>
<path d="M128.166 22.0981C128.447 22.0633 129.836 22.0078 129.977 22.2239C129.792 22.3612 129.562 22.3481 129.331 22.3599L129.332 23.7188C129.329 23.9501 129.339 24.1637 129.147 24.3113C128.741 24.1297 129.009 23.2086 128.978 22.7993C128.926 22.0929 128.624 22.5659 128.166 22.0981Z" fill="#F5F5F5"/>
<path d="M36.0249 11.165C36.1643 11.35 36.1045 16.7262 36.1044 17.3245L36.1243 27.1053C34.5854 28.1194 32.6939 29.1226 31.088 30.0616C29.5331 30.9705 27.9301 31.9283 26.3598 32.8076L23.5642 34.3874C23.3822 34.4902 22.4679 34.9883 22.3506 35.0906L22.3629 35.1419H22.1865C21.6741 34.7466 19.6723 33.8099 19.5387 33.4941C19.6495 33.1136 21.6969 32.0731 22.1885 31.7947C25.0445 30.1956 27.865 28.4438 30.7193 26.8334C31.5097 26.3875 32.3347 25.9584 33.1064 25.4854C33.1785 22.8334 33.1173 19.8428 33.108 17.1785C29.6732 19.1161 26.2578 21.2115 22.8095 23.1392C21.6902 23.7649 19.868 24.9671 18.7032 25.4118C18.7022 24.521 18.712 23.6302 18.7327 22.7396C19.0839 22.4668 19.7117 22.1314 20.1037 21.8857C21.1907 21.2045 22.3366 20.604 23.4398 19.9594L29.7616 16.2991C30.9064 15.6428 31.9502 15.0099 33.1266 14.3919C33.1881 13.8792 33.1726 13.3761 33.1575 12.8616C33.8342 12.5985 35.4086 11.6045 36.0249 11.165Z" fill="#F5F5F5"/>
<path d="M22.1889 31.7947C22.2235 32.2743 22.1955 34.8836 22.351 35.0906L22.3633 35.1419H22.1869C21.6745 34.7466 19.6727 33.8099 19.5391 33.4941C19.6499 33.1136 21.6973 32.0732 22.1889 31.7947Z" fill="#F5F5F5"/>
<path d="M8.44873 11.1487L8.49576 11.1662C8.94331 11.4893 10.9692 12.5506 11.5494 12.8515C11.4941 13.0679 11.5243 14.5757 11.525 14.9329L11.5462 20.5306C11.5508 21.7367 11.4735 24.5609 11.5842 25.6138C12.4428 25.9848 13.18 26.5525 13.9266 26.8924C13.9325 26.6438 13.93 26.2401 13.9643 26.0058C13.9753 26.3245 13.9876 26.6329 13.9812 26.9523C14.4986 27.2728 15.7239 28.0673 16.2533 28.2434L16.3151 28.0172C16.4153 28.6095 16.9979 28.6313 17.438 28.9857C17.9398 29.2977 19.4303 30.1996 19.9357 30.4442C19.1134 30.8081 18.1616 31.6263 17.0213 32.0975C16.217 31.7341 15.4983 31.2256 14.7306 30.8135C12.6746 29.7098 10.4985 28.2545 8.44873 27.2016V11.1487Z" fill="#F5F5F5"/>
<path d="M29.5831 10.8809C30.3618 11.2015 31.2835 11.7869 32.011 12.2461C31.6335 12.6126 28.9609 14.0819 28.2792 14.4707L20.6004 18.9123C19.484 19.5536 17.374 20.6681 16.3852 21.347C16.229 22.7276 16.4285 24.9523 16.3519 26.3912C16.3255 26.8879 16.3778 27.5076 16.3149 28.0171L16.253 28.2433C15.7237 28.0672 14.4984 27.2727 13.981 26.9522C13.9873 26.6328 13.9751 26.3244 13.9641 26.0057C13.8833 25.3804 13.8758 20.0748 13.9907 19.8436C14.0441 19.7361 14.2775 19.6068 14.3869 19.5412C17.6408 17.5875 20.9828 15.7702 24.2685 13.8701L27.5472 11.9597C28.0518 11.6672 29.0591 11.0506 29.5831 10.8809Z" fill="#F5F5F5"/>
<path d="M22.1196 3.1947H22.4035C23.3737 3.80437 24.3625 4.38385 25.3686 4.93229C20.7496 7.55028 16.184 10.2646 11.5497 12.8515C10.9695 12.5506 8.94365 11.4893 8.49609 11.1661C9.46096 10.4574 10.6274 9.8631 11.6761 9.24729C14.3608 7.67097 17.074 6.13267 19.7595 4.55881C20.5658 4.08627 21.337 3.71543 22.1196 3.1947Z" fill="#F5F5F5"/>
<path d="M30.69 21.3035C30.6974 21.8234 30.8078 23.8122 30.6081 24.1306C30.0584 24.5937 28.892 25.171 28.2305 25.561L22.5093 28.9475C21.8853 29.3138 20.4244 30.082 19.9357 30.4441C19.4302 30.1995 17.9397 29.2977 17.438 28.9856C19.3259 27.7323 21.4785 26.6105 23.4442 25.4581L27.3394 23.206C28.2402 22.6776 29.7627 21.7594 30.69 21.3035Z" fill="#F5F5F5"/>
<path d="M13.9653 14.2397C14.3784 13.9093 15.8567 13.1207 16.3922 12.809L22.5291 9.28045C23.0052 9.00684 24.4446 8.22092 24.7871 7.93005C25.3438 8.45104 26.6115 8.94027 27.1367 9.45312C25.329 10.6064 23.1551 11.7421 21.2896 12.8389C18.88 14.2556 16.4102 15.6999 13.9633 17.0489C13.9432 16.1127 13.9439 15.176 13.9653 14.2397Z" fill="#F5F5F5"/>
<path d="M24.7871 7.93C25.2226 7.68489 27.5356 6.24531 27.8384 6.39846C30.6282 7.80971 33.3115 9.64554 36.0252 11.165C35.409 11.6045 33.8345 12.5985 33.1579 12.8616C32.8949 12.7895 32.2316 12.4329 32.0113 12.2462C31.2838 11.787 30.3621 11.2016 29.5834 10.8809C29.1101 10.6612 27.7589 9.78553 27.1367 9.45306C26.6115 8.94021 25.3438 8.45098 24.7871 7.93Z" fill="#F5F5F5"/>
<path d="M130.855 22.7042C130.866 23.1388 130.994 24.0283 130.683 24.31L130.576 24.292C130.438 24.0123 130.487 22.4527 130.553 22.0952C131.163 21.917 131.514 23.2918 131.76 23.7791C131.881 23.308 132.022 22.5549 132.328 22.1895C132.452 22.0407 132.672 22.0693 132.868 22.0582V24.2761C132.731 24.2793 132.65 24.2912 132.525 24.2347C132.346 23.9782 132.432 22.962 132.425 22.5466C132.319 22.8917 132.022 24.1646 131.676 24.2356C131.458 24.1038 131.073 23.0831 130.855 22.7042Z" fill="#F5F5F5"/>
</g>
<defs>
<clipPath id="clip0_3784_15605">
<rect width="124.419" height="31.9472" fill="white" transform="translate(8.44873 3.1947)"/>
</clipPath>
</defs>
</svg>
