<svg width="57" height="39" viewBox="0 0 57 39" fill="none" xmlns="http://www.w3.org/2000/svg">
<g clip-path="url(#clip0_3784_15639)">
<path d="M29.3559 0H35.0617C35.4158 2.28912 35.7086 4.64317 36.0303 6.94499L37.5479 17.8771C37.883 20.4124 38.3291 23.0325 38.6138 25.5608C38.0789 25.5441 37.4538 25.565 36.9084 25.565L33.3022 25.563L30.8133 25.562C30.3467 25.5611 29.8046 25.5408 29.3481 25.5717L29.3559 0Z" fill="#F5F5F5"/>
<path d="M21.4002 0H27.1145L27.107 25.5785C26.2239 25.5298 25.0076 25.565 24.1021 25.5648L17.8994 25.5573C17.9567 24.6267 18.1523 23.5561 18.2832 22.6206L18.9599 17.6933C19.8051 11.8 20.6186 5.90211 21.4002 0Z" fill="#F5F5F5"/>
<path d="M0.669331 28.1557L39.8008 28.16L50.1443 28.1601C52.0276 28.1599 53.936 28.1408 55.8162 28.1644C55.868 28.4212 56.2531 29.8824 56.3771 30.0641V30.234L0.0908203 30.2312C0.257297 29.7707 0.544342 28.651 0.669331 28.1557Z" fill="#F5F5F5"/>
<path d="M37.8667 4.18286L42.8328 4.19755L45.1126 17.1068C45.4738 19.1061 46.2039 23.2879 46.577 25.5096C46.5629 25.5302 46.5485 25.5508 46.5344 25.5714C45.9558 25.5291 44.8212 25.5628 44.2123 25.5641C43.0245 25.5667 41.7543 25.5342 40.5746 25.5718C40.5002 24.7607 40.3223 23.6443 40.2145 22.8031L39.5073 17.2924L37.8667 4.18286Z" fill="#F5F5F5"/>
<path d="M13.7373 4.21003C14.3511 4.17609 15.0486 4.18966 15.6688 4.18984L18.6141 4.19882C18.4621 5.90184 18.1679 7.78456 17.9492 9.49678L16.8128 18.5435L16.243 22.9779C16.1332 23.8323 15.9999 24.7211 15.9158 25.5753C15.5664 25.5533 15.1617 25.5639 14.8077 25.5649C13.1811 25.5669 11.5019 25.5891 9.87988 25.5405C10.3469 23.2891 10.7291 20.7711 11.1202 18.4997L12.7025 9.64371L13.3439 5.96026C13.4307 5.43874 13.5144 4.86626 13.6096 4.3435C13.6265 4.25097 13.6694 4.24364 13.7373 4.21003Z" fill="#F5F5F5"/>
<path d="M45.6841 9.67175C47.3465 9.7609 49.1573 9.63824 50.8257 9.71037C51.0797 10.368 51.2764 11.3142 51.4547 12.0206C51.7813 13.2664 52.1012 14.514 52.4145 15.7634L53.9504 21.8212C54.2126 22.839 54.7027 24.4986 54.8669 25.4926L54.8246 25.5487C52.7464 25.606 50.6101 25.5409 48.5269 25.5584C48.4741 25.0412 48.3331 24.3679 48.238 23.8494L47.7119 20.9998L46.4022 13.6806L45.935 11.1925C45.85 10.7365 45.7214 10.1229 45.6841 9.67175Z" fill="#F5F5F5"/>
<path d="M5.62328 9.67383C7.29505 9.69201 9.12781 9.73112 10.7949 9.68542C10.6862 10.5135 10.511 11.3768 10.3582 12.2028L9.63016 16.1442C9.05681 19.2913 8.54275 22.4341 7.91196 25.5748C7.5855 25.5447 7.112 25.5594 6.77394 25.5603C5.05947 25.563 3.2886 25.5886 1.57959 25.5422C1.89933 24.0421 2.40769 22.3502 2.78522 20.8415L5.62328 9.67383Z" fill="#F5F5F5"/>
<path d="M30.8119 33.8696C30.9943 33.8537 31.5569 33.8252 31.7063 33.9178C31.8579 34.0116 31.8888 34.167 32.1147 34.2202C32.1704 34.1342 32.1506 34.0656 32.1526 33.9472C32.2664 33.9015 32.7114 33.9134 32.8599 33.912C32.8666 34.8069 32.8799 35.7014 32.8609 36.5978C32.8357 37.7873 32.0809 38.3208 30.9444 38.2116C30.6154 38.1799 30.0241 37.9998 29.8107 37.7514L29.8286 37.6845C29.9337 37.5646 30.1306 37.269 30.2308 37.1263C30.6321 37.467 31.2778 37.7592 31.7733 37.3934C32.0835 37.1644 32.1137 36.7799 32.1567 36.4241C31.9759 36.5861 31.8672 36.6806 31.6324 36.7634C31.2707 36.8888 30.8738 36.8649 30.5299 36.6968C29.4003 36.1302 29.4555 34.274 30.8119 33.8696Z" fill="#F5F5F5"/>
<path d="M31.0459 34.5539C31.3298 34.4531 31.646 34.5147 31.8714 34.7147C32.0968 34.9146 32.1956 35.2212 32.1294 35.5153C32.0632 35.8091 31.8424 36.0438 31.5531 36.1277C31.1234 36.2524 30.6724 36.0131 30.5352 35.5871C30.3979 35.1613 30.6242 34.7035 31.0459 34.5539Z" fill="#1A1D21"/>
<path d="M53.1434 33.8695C54.0817 33.8284 54.7075 34.018 54.8932 35.0781C55.0976 36.2422 54.0637 37.2633 52.9231 36.7474C52.7952 36.6897 52.6652 36.579 52.5549 36.4888L52.55 36.9888L52.5447 38.1315L51.7977 38.1245L51.7974 33.9205L52.4573 33.9102C52.5655 34.0062 52.4661 34.0576 52.5634 34.2107C52.6804 34.1907 52.7952 33.9819 53.1434 33.8695Z" fill="#F5F5F5"/>
<path d="M53.1128 34.5578C53.4014 34.476 53.7115 34.5559 53.9243 34.7671C54.1375 34.9782 54.22 35.2877 54.1407 35.577C54.061 35.8663 53.832 36.09 53.5413 36.1626C53.1009 36.2729 52.6541 36.0093 52.5371 35.571C52.4201 35.1327 52.6763 34.6816 53.1128 34.5578Z" fill="#1A1D21"/>
<path d="M40.3056 32.4654C40.3215 32.463 40.3377 32.461 40.3536 32.4594C41.0209 32.3899 41.727 32.584 42.2545 33.0025C42.0695 33.1651 41.8458 33.3963 41.6657 33.572C40.8927 32.9675 39.6097 32.9947 39.2415 34.0347C38.7098 35.5354 39.9868 36.6566 41.5065 36.0047C41.5244 35.6947 41.5237 35.3353 41.5318 35.0206L40.6724 35.019L40.6746 34.3321C40.8049 34.3015 42.1058 34.3183 42.3158 34.3198C42.3042 35.03 42.3169 35.7859 42.318 36.4994C41.3479 36.9607 40.0544 37.1393 39.1414 36.4607C38.1654 35.7355 38.053 34.1879 38.7739 33.2506C39.1629 32.7451 39.6954 32.5352 40.3056 32.4654Z" fill="#F5F5F5"/>
<path d="M13.6039 32.5652C13.8662 32.5883 14.0856 32.5756 14.3469 32.5592C14.3437 33.1136 14.3468 33.668 14.3561 34.2224C14.9972 34.2112 15.6628 34.2193 16.306 34.2181C16.3042 33.6662 16.3079 33.1143 16.3173 32.5624C16.5422 32.5801 16.8578 32.5707 17.0905 32.5698C17.0918 33.0216 17.1333 36.6357 17.054 36.7745L16.9218 36.7819L16.3082 36.783L16.3068 34.9316C15.7116 34.9617 14.9728 34.9255 14.3458 34.9438L14.3444 36.7809L13.5991 36.7837L13.6039 32.5652Z" fill="#F5F5F5"/>
<path d="M46.2193 33.8506C47.0541 33.6379 47.9026 34.1447 48.1112 34.9804C48.3198 35.8162 47.8088 36.6622 46.9723 36.8666C46.1411 37.0699 45.3022 36.5632 45.095 35.7334C44.8878 34.9032 45.3902 34.0618 46.2193 33.8506Z" fill="#F5F5F5"/>
<path d="M46.3622 34.5583C46.6515 34.4707 46.9655 34.5464 47.1829 34.7563C47.4003 34.9662 47.4873 35.2772 47.4101 35.5693C47.3326 35.8614 47.1032 36.089 46.8104 36.1637C46.3714 36.2761 45.9228 36.0171 45.8009 35.5802C45.679 35.1437 45.9285 34.6897 46.3622 34.5583Z" fill="#1A1D21"/>
<path d="M9.55876 33.8678C10.9569 33.7895 11.1573 34.374 11.2761 35.6214C10.6883 35.6559 9.63236 35.6326 9.03226 35.6164C9.19297 35.9667 9.24773 36.0498 9.57655 36.256C9.73046 36.2616 9.90713 36.257 10.0631 36.2574C10.2615 36.1534 10.4421 35.9889 10.6371 35.8631C10.7732 35.9963 10.9917 36.17 11.1435 36.2972C10.5778 36.899 9.72694 37.0992 9.00989 36.6298C8.67391 36.4114 8.44111 36.0657 8.3649 35.6721C8.18939 34.7926 8.67071 34.0374 9.55876 33.8678Z" fill="#F5F5F5"/>
<path d="M9.54262 34.428C10.1459 34.3536 10.3147 34.5107 10.5685 35.0238L10.0797 35.0445L9.02197 35.0308C9.18011 34.735 9.24956 34.5992 9.54262 34.428Z" fill="#1A1D21"/>
<path d="M18.7826 33.8697C20.0775 33.7442 20.5129 34.394 20.4898 35.6221C19.778 35.6425 18.9995 35.6284 18.2825 35.6298C18.4014 35.8754 18.4759 36.009 18.6918 36.1749C19.1865 36.5548 19.7077 35.9117 19.8569 35.8906L20.3934 36.287C19.8039 36.8645 19.0121 37.1196 18.2669 36.6415C17.9295 36.4262 17.6919 36.0847 17.6068 35.6936C17.4215 34.8262 17.9123 34.0535 18.7826 33.8697Z" fill="#F5F5F5"/>
<path d="M18.9392 34.3954C19.2591 34.3878 19.5524 34.5511 19.7332 34.8109C19.7555 34.9399 19.7653 34.892 19.7063 34.9947C19.5975 35.0719 19.4184 35.0474 19.278 35.0437L18.2939 35.0312C18.4763 34.6316 18.5127 34.527 18.9392 34.3954Z" fill="#1A1D21"/>
<path d="M34.5014 33.8691C35.827 33.7583 36.1759 34.3869 36.1963 35.6224C35.7742 35.6376 34.3982 35.5897 34.0878 35.6549L34.0547 35.7126C34.1451 36.2856 34.9329 36.4427 35.3038 36.0795C35.3711 36.0139 35.4951 35.9181 35.5825 35.8902L36.0761 36.275C35.5402 36.9033 34.6579 37.0897 33.9434 36.6238C32.8604 35.9177 33.1344 34.1207 34.5014 33.8691Z" fill="#F5F5F5"/>
<path d="M34.4876 34.4282C34.855 34.3803 35.2566 34.4568 35.4261 34.8285C35.4254 34.9502 35.4402 34.9034 35.3686 35.0046C35.2601 35.0672 35.1158 35.045 34.9857 35.0393C34.6546 35.0433 34.3234 35.0377 33.9927 35.0226C34.1569 34.7073 34.1781 34.6018 34.4876 34.4282Z" fill="#1A1D21"/>
<path d="M5.26791 32.5599C5.53619 32.5861 5.74867 32.578 6.01568 32.5596C6.02266 33.0077 6.0463 33.7986 5.99553 34.2215C6.41152 33.8784 7.17005 33.6236 7.59372 34.0927C8.05753 34.6062 7.89982 36.0675 7.89488 36.7835L7.14341 36.7831L7.14394 35.5795C7.14633 35.343 7.16469 34.7842 6.93576 34.6399C5.75931 33.8982 6.01886 36.2204 6.02301 36.7824L5.27785 36.7863C5.25033 35.4075 5.25917 33.9417 5.26791 32.5599Z" fill="#F5F5F5"/>
<path d="M27.7801 33.8693C29.6263 33.7791 29.3536 34.7108 29.3788 36.1569C29.3824 36.3645 29.3721 36.5787 29.3684 36.7862C29.2017 36.7876 28.8891 36.8053 28.744 36.7542C28.7502 36.6566 28.753 36.6513 28.7022 36.5724C28.496 36.5061 27.8427 37.344 26.919 36.5537C26.6919 36.2492 26.5805 35.7764 26.8602 35.4709C27.2998 34.9907 28.0645 35.0108 28.6643 34.9711L28.704 34.9015C28.6044 34.2311 27.7356 34.3161 27.3045 34.728L26.8688 34.3162C27.2026 34.0393 27.3556 33.9395 27.7801 33.8693Z" fill="#F5F5F5"/>
<path d="M27.852 35.5689C28.1295 35.5344 28.4157 35.5484 28.6959 35.5548C28.6095 35.9403 28.6079 36.0886 28.2372 36.2789C27.5387 36.3842 27.124 35.8198 27.852 35.5689Z" fill="#1A1D21"/>
<path d="M1.56302 32.5587C2.35996 32.6089 4.09497 32.5923 4.89553 32.5606L4.88932 33.2639L3.60593 33.2645C3.61495 34.0097 3.61868 34.7549 3.61713 35.5002L3.61174 36.7831L2.83305 36.7842C2.84248 35.6112 2.8452 34.4377 2.84118 33.2644L1.55781 33.2649C1.549 33.0231 1.55612 32.8003 1.56302 32.5587Z" fill="#F5F5F5"/>
<path d="M50.489 33.9088C50.6874 33.9283 51.0235 33.9208 51.2332 33.9217L51.2346 34.8394L51.2325 36.7855C51.0926 36.7866 50.6173 36.8123 50.5352 36.7499L50.5316 36.5463C50.4132 36.4423 50.167 36.7964 50.0408 36.8278C48.2403 37.2739 48.575 35.0801 48.6204 33.9104C48.8058 33.9273 49.1331 33.921 49.3287 33.9228C49.3234 34.4266 49.2339 35.863 49.5324 36.0568C50.7987 36.8789 50.4915 34.129 50.489 33.9088Z" fill="#F5F5F5"/>
<path d="M24.9096 33.0784C25.1007 33.0962 25.4491 33.0877 25.6524 33.0884L25.6558 33.9265L26.4417 33.9259C26.4522 34.0981 26.4349 34.3653 26.4287 34.5441C26.1887 34.5345 25.8944 34.5443 25.6501 34.5463C25.6506 34.9655 25.607 35.5702 25.6897 35.9698C25.7956 36.4811 26.1339 36.0575 26.4174 36.2256C26.4785 36.3211 26.4458 36.4934 26.4349 36.6125C26.4261 36.7485 26.4462 36.7094 26.3787 36.8003C26.2726 36.8472 26.2146 36.8595 26.0974 36.8718C24.5684 37.0322 24.9457 35.745 24.8779 34.5266C24.658 34.5297 24.5603 34.5423 24.3477 34.5764L24.348 33.906C24.5066 33.925 24.7352 33.9241 24.8998 33.9283C24.8912 33.6546 24.9035 33.3544 24.9096 33.0784Z" fill="#F5F5F5"/>
<path d="M22.1887 33.8687C22.3692 33.8565 22.5957 33.8638 22.7799 33.8646C22.7866 34.0447 22.82 34.4498 22.7356 34.589C22.4814 34.5859 22.0497 34.5193 21.8723 34.7403C21.543 35.1507 21.6596 36.2503 21.6611 36.7775L21.2029 36.7834C21.0806 36.781 21.0286 36.8018 20.9426 36.7419C20.8798 36.232 20.9265 34.4816 20.9317 33.8924C21.1332 33.9255 21.5456 33.8727 21.6293 33.978C21.6496 34.0034 21.5998 34.1162 21.6705 34.1815C21.7747 34.1627 22.0322 33.955 22.1887 33.8687Z" fill="#F5F5F5"/>
<path d="M44.3642 33.8661C44.5228 33.8545 44.7278 33.8604 44.8903 33.8604L44.8927 34.6224C43.4382 34.2884 43.799 35.8067 43.7888 36.7793L43.2254 36.7863L43.0943 36.7764C43.0157 36.6584 43.058 34.2461 43.0601 33.8995C43.2409 33.92 43.6486 33.8971 43.7518 33.9452C43.7624 34.0253 43.7698 34.0921 43.7747 34.1728C43.8776 34.1494 44.1781 33.9428 44.3642 33.8661Z" fill="#F5F5F5"/>
<path d="M23.1905 33.8878C23.377 33.933 23.7245 33.9247 23.9293 33.9264C23.929 34.8028 23.9012 35.9275 23.9488 36.7809L23.1845 36.7862C23.1792 35.82 23.1812 34.8539 23.1905 33.8878Z" fill="#F5F5F5"/>
<path d="M23.3736 32.5606C23.9448 32.4598 24.3001 33.0102 23.7257 33.3677C23.1107 33.4041 22.8367 32.9546 23.3736 32.5606Z" fill="#F5F5F5"/>
</g>
<defs>
<clipPath id="clip0_3784_15639">
<rect width="56.3774" height="38.3366" fill="white"/>
</clipPath>
</defs>
</svg>
