<svg width="68" height="39" viewBox="0 0 68 39" fill="none" xmlns="http://www.w3.org/2000/svg">
<g clip-path="url(#clip0_3784_15590)">
<path d="M3.36152 5.30542H17.995L18.0306 5.34192V17.642H19.2055V5.34192L19.2411 5.30542H33.8746V17.642H35.0851V5.30542H49.7186L49.7542 19.9779L50.1814 19.5035L50.4663 19.2115L50.8579 18.883L50.8935 18.8465L50.9291 5.30542H65.5626L65.5982 5.34192V26.4747L65.5626 26.5112H61.5037L61.4325 26.9127L60.3643 31.3291L60.2575 31.6211L59.4742 31.8036L58.1569 32.059L56.6259 32.278L55.5221 32.3875L54.2404 32.4605H53.1722L52.2109 32.3875L51.3208 32.2415L50.6087 32.059L49.9322 31.8036L49.1845 31.4021L48.7573 31.0736L48.33 30.6721L47.974 30.2341L47.6179 29.6136L47.3331 28.8837L47.1551 28.0807L47.0839 27.4602V26.5112H45.0188L44.9832 26.8762L44.0575 31.4021L43.9151 32.0955L43.8794 32.132H40.319L40.3546 31.8401L41.1023 28.2267L41.4583 26.5477H39.2153L38.8236 27.1682L38.3964 27.8617L37.3994 29.4676L36.5449 30.8546L36.0465 31.6576L35.7616 32.0955L35.726 32.132H32.6996L32.664 32.0226L32.6284 28.3727V26.5112L31.0262 26.5477L30.3141 29.1756L29.5308 32.0226L29.4952 32.132H25.8636L25.9348 31.7671L26.9317 28.2267L27.3946 26.5842L27.4302 26.5112H18.6715L18.5646 26.9492L17.8169 29.5041L17.1049 31.9496L17.0337 32.132H13.4376L13.5088 31.8036L14.2921 29.1391L15.0398 26.5842L15.0754 26.5112H9.12945L9.87714 28.0807L10.34 29.1026L10.7317 29.9056L11.1945 30.9276L11.7286 32.059V32.132H7.74087L6.70834 30.0151L6.31669 29.1756L5.21295 26.9127L5.07054 26.5842V26.5112H4.57207L4.42966 27.0952L3.93119 28.7742L2.96987 32.059L2.93427 32.132H-0.376953L-0.0209081 30.8911L2.96987 20.6714L3.32592 19.4305L3.36152 5.30542ZM3.89559 5.8529V17.642H7.1712L6.85076 18.7005L5.46219 23.4453L5.49779 23.5183L5.88944 23.1168L6.13867 22.8249L6.3879 22.5694L6.63713 22.2774L7.1356 21.7299L7.66967 21.1459L8.06131 20.7079L8.55978 20.1604L8.95143 19.7225L9.4855 19.1385L9.91275 18.664L10.4112 18.1165L10.8029 17.6785H15.2178L14.8974 18.007L14.6481 18.299L13.0103 19.9779L12.7611 20.2699L11.6574 21.4014L11.4081 21.6934L9.84154 23.2993L9.59231 23.5913L8.45296 24.7593V24.8323H8.38176L8.41736 25.0513L8.84461 25.9637H15.2534L15.6451 24.6863L16.4996 21.7664L17.1761 19.467L17.4609 18.4815V5.8529H3.89559ZM19.7752 5.8529V17.642H23.5849L24.7598 17.715L25.4007 17.8245L25.9348 18.007L26.4688 18.299L26.7537 18.5545L27.0741 19.029L27.2521 19.4305L27.359 19.8319L27.3946 20.0509V21.2189L27.2521 22.1314L27.0741 22.8249L26.8605 23.3723L26.5757 23.9198L26.2908 24.3213L25.9704 24.6863L25.6499 25.0148L25.0803 25.4163L24.2614 25.8542L24.0833 25.9272V25.9637H27.5726L27.6794 25.7083L28.4627 22.9343L29.3884 19.613L29.9225 17.715V17.642H33.3049L33.3405 17.6055V5.8529H19.7752ZM35.5836 5.8529V25.9637H35.9396L36.1533 25.6718L37.1502 24.0658L37.5774 23.3723L38.5744 21.7664L39.0016 21.0729L39.5001 20.2699L39.9273 19.5765L40.9243 17.9705L41.1023 17.6785L46.8702 17.642L46.621 18.81L45.9445 22.0949L45.1612 25.8907V25.9637H47.1195L47.1907 25.7448L47.3331 24.9418L47.5823 23.9928L47.9028 23.1168L48.2232 22.3869L48.6505 21.5839L49.1845 20.7444V5.8529H35.5836ZM51.4632 5.8529V18.445L51.8549 18.226L52.6738 17.788L53.5283 17.4595L54.3828 17.204L55.2729 17.0215L56.0918 16.912L56.5903 16.8755H58.3349L59.3674 16.985L60.2219 17.1675L60.8272 17.3865L61.3969 17.6785L61.7885 17.934L62.1446 18.2625L62.465 18.7005L62.7142 19.248L62.8567 19.8684V20.8174L62.7142 21.6569H58.6553L58.6197 20.9999L58.5129 20.6349L58.2993 20.3064L58.05 20.0509L57.6228 19.8319L57.2311 19.7225L56.9463 19.686H56.1986L55.5577 19.7954L54.81 20.0509L54.2404 20.3794L53.7775 20.7444L53.3502 21.1459L53.0298 21.5474L52.6382 22.0949L52.2109 22.8978L51.9261 23.5913L51.7124 24.2483L51.5344 24.9783L51.4632 25.3798V25.9637H54.7744L55.3441 23.6643H62.1802L61.6461 25.8907V25.9637H65.0641V5.8529H51.4632ZM20.5229 19.9414L20.06 21.7299L19.4904 23.9198V23.9928H21.2706L22.0183 23.8833L22.5523 23.7008L22.9796 23.4453L23.3356 23.0803L23.6205 22.5694L23.8341 22.0584L24.0121 21.4014L24.0477 21.2189V20.6349L23.9053 20.3429L23.7273 20.1969L23.3713 20.0509L22.9796 19.9779L22.4099 19.9414H20.5229ZM32.5572 20.8904L32.0231 22.7884L31.3467 25.2703L31.1686 25.9272L31.2042 25.9637H32.6284V23.1898L32.5928 20.8904H32.5572ZM42.5621 21.0729L42.3129 21.5109L41.7788 22.3504L41.3871 23.0073L40.9955 23.6278L40.497 24.4308L40.0698 25.1243L39.5713 25.9272V25.9637H41.5652L41.672 25.6718L42.5265 21.5839L42.5977 21.2554V21.0729H42.5621ZM51.392 26.5112L51.4276 27.1317L51.57 27.7157L51.8549 28.2997L52.1041 28.6282L52.3889 28.9202L52.8518 29.2121L53.3859 29.4311L53.8487 29.5406L54.632 29.6136L55.5577 29.5771L56.4834 29.4676L56.9463 29.3946L57.0531 29.2851L57.694 26.6572V26.5112H51.392Z" fill="#F5F5F5"/>
</g>
<defs>
<clipPath id="clip0_3784_15590">
<rect width="67.0891" height="38.3366" fill="white"/>
</clipPath>
</defs>
</svg>
