<svg width="182" height="39" viewBox="0 0 182 39" fill="none" xmlns="http://www.w3.org/2000/svg">
<g clip-path="url(#clip0_3784_15783)">
<mask id="mask0_3784_15783" style="mask-type:luminance" maskUnits="userSpaceOnUse" x="0" y="2" width="181" height="33">
<path d="M180.264 2.94897H0.0444336V34.3359H180.264V2.94897Z" fill="white"/>
</mask>
<g mask="url(#mask0_3784_15783)">
<mask id="mask1_3784_15783" style="mask-type:luminance" maskUnits="userSpaceOnUse" x="0" y="2" width="181" height="33">
<path d="M180.264 2.94897H0.0439453V34.3359H180.264V2.94897Z" fill="white"/>
</mask>
<g mask="url(#mask1_3784_15783)">
<path d="M43.432 12.3329H47.7574L48.238 13.2912L50.4007 19.4007L51.3617 22.3954L51.7221 23.2341L51.9625 23.1142L53.5245 18.2028L55.687 12.4527H60.0122V26.9476H57.249V17.1247L57.369 14.609L56.8884 14.8486L56.0475 17.8434L54.6057 21.7967L53.0437 25.7497L52.8036 26.1092H50.1603L48.8387 22.6351L47.6372 19.2809L46.3156 14.9684L46.1954 14.7287L45.8351 14.609V26.9476H43.312V12.4527L43.432 12.3329Z" fill="#393939"/>
<path d="M21.8066 12.453L23.1279 12.8124L24.3291 13.411L25.0508 14.2499L25.5312 15.328L25.6514 15.8065V17.7235L25.291 19.0409L24.4502 20.119L23.4883 20.8378L22.8877 21.078H22.5273L22.8877 21.6766L24.5703 23.953L26.0117 25.87L26.6123 26.828V26.9471H23.3682L22.5273 25.87L21.2061 23.8329L19.7637 21.6766L19.6436 21.5575H17.001L16.8809 26.9471H14.2373V12.453L15.6787 12.3329H18.4424L21.8066 12.453ZM16.999 14.7284L16.8789 14.8475V19.0409L16.999 19.16H20.9639L21.8057 18.9208L22.5264 18.4413L23.0068 17.4833V16.285L22.8867 15.9257L22.4062 15.2069L21.2051 14.7284H16.999Z" fill="#393939"/>
<path d="M7.50879 12.4531L8.83008 12.8125L9.79102 13.291L10.3926 13.7705L11.1133 14.9688L11.4736 16.2861V18.2031L11.1133 19.4004L10.5127 20.3594L9.6709 21.1973L8.46973 21.7969L6.78809 22.1562H2.94336V26.9473H0.179688V12.8125L0.299805 12.333H4.625L7.50879 12.4531ZM3.0625 14.7285L2.94238 14.8477V19.7598L3.0625 19.8789H6.66699L7.86816 19.5195L8.46875 18.9209L8.8291 17.9629V16.6445L8.58887 15.9258L7.86816 15.0879L6.78711 14.7285H3.0625Z" fill="#393939"/>
<path d="M92.3317 12.3329H94.6146L95.0948 12.9318L97.0173 16.4059L98.2191 18.5622L99.18 20.4788L100.261 22.7549L100.742 23.833V24.0727H101.222L101.103 22.9944L100.982 20.3591V12.4527L101.222 12.3329L103.505 12.4527V26.9476H99.9009L99.18 25.8695L97.2573 22.3954L95.696 19.6403L94.3739 16.885L93.5333 14.9684L93.0524 14.8486L93.173 15.3277L93.2926 17.6038L93.413 21.6769V26.9476H90.7695V12.4527L92.3317 12.3329Z" fill="#393939"/>
<path d="M29.375 12.3329H39.8278L39.948 12.4527L39.8278 14.8486H32.1384V18.3225H39.1069V20.7185H32.1384V24.5518H39.8278V26.9476H29.375V12.3329Z" fill="#393939"/>
<path d="M140.51 12.0853H142.673L144.356 12.4447L145.557 13.0437L146.398 13.8822L147.239 15.5594L147.359 16.2782L146.758 16.5177L144.716 16.8771L143.875 15.2L143.154 14.601L142.193 14.3614H140.751L139.55 14.7208L138.949 15.3197L138.829 15.6791V16.6375L139.31 17.3563L140.51 17.9552L144.475 18.9135L146.398 19.8719L147.239 20.8303L147.719 22.0283V23.7053L147.359 24.9032L146.879 25.622L146.038 26.3408L145.077 26.8199L143.635 27.1792H140.271L138.468 26.7001L137.267 25.9815L136.426 25.1429L135.705 23.7053L135.464 22.5074L137.507 22.0283H138.108L138.708 23.4658L139.31 24.1844L140.15 24.6636L141.231 24.9032H142.914L144.235 24.4241L144.596 24.3043L144.836 23.7053V22.5074L144.475 21.9084L143.514 21.3095L141.592 20.8303L139.55 20.3511L138.108 19.7521L137.027 19.0334L136.306 17.9552L136.066 17.1167V15.4396L136.546 14.1219L137.387 13.1635L138.829 12.4447L140.51 12.0853Z" fill="#393939"/>
<path d="M122.488 12.3329H132.821V14.8486H125.252L125.132 18.3225H132.101V20.7185L125.132 20.8382V24.5518H132.821V26.9476H122.369V12.4527L122.488 12.3329Z" fill="#393939"/>
<path d="M107.951 12.3329H108.551L109.032 13.411L112.035 22.2758L112.636 24.3123V24.5518L113.237 24.432L114.678 20.1194L117.202 12.6923L117.562 12.3329H120.085L120.205 12.5724L118.883 16.0465L116.12 23.4737L114.799 26.9476H111.074L108.551 20.2393L106.148 13.7704L105.667 12.4527L107.951 12.3329Z" fill="#393939"/>
<path d="M151.083 12.3329H161.055L161.536 12.4527L161.415 14.9684H157.09L156.97 26.9476H154.207V14.9684H149.761L149.641 14.8486V12.8121L149.761 12.4527L151.083 12.3329Z" fill="#393939"/>
<path d="M169.467 12.3329H172.59V26.9476H169.346V14.4892L169.467 12.3329Z" fill="#393939"/>
<path d="M65.6604 12.3329H68.3037V23.9528L67.9431 25.1508L67.3424 26.1092L66.2611 26.828L65.5402 27.0675H62.7768L62.5366 26.9476V25.5101L62.6568 24.6716H64.2186L65.0597 24.3123L65.42 23.7132L65.5402 22.6351V15.0881L65.6604 12.3329Z" fill="#393939"/>
<path d="M73.3489 12.3329H74.4302L74.9107 12.4527V26.9476H72.1475V12.4527L73.3489 12.3329Z" fill="#393939"/>
<path d="M84.1621 12.4418H86.9261V26.9369H84.1621V12.4418Z" fill="#393939"/>
<path d="M177.035 18.0693H180.279V26.9341L180.159 27.0538H177.156L177.035 26.9341V18.0693Z" fill="#393939"/>
<path d="M173.311 12.3329H176.435V20.1194H173.191V12.6923L173.311 12.3329Z" fill="#393939"/>
<path d="M173.191 20.7119H176.435V26.9411L176.315 27.0609H173.311L173.191 26.9411V20.7119Z" fill="#393939"/>
<path d="M177.156 12.3329H180.279V17.484H177.035V12.4527L177.156 12.3329Z" fill="#393939"/>
</g>
</g>
</g>
<defs>
<clipPath id="clip0_3784_15783">
<rect width="181.3" height="33.5446" fill="white" transform="translate(0 2.396)"/>
</clipPath>
</defs>
</svg>
