<svg width="100" height="21" viewBox="0 0 100 21" fill="none" xmlns="http://www.w3.org/2000/svg">
<g clip-path="url(#clip0_3784_15787)">
<mask id="mask0_3784_15787" style="mask-type:luminance" maskUnits="userSpaceOnUse" x="0" y="0" width="100" height="21">
<path d="M99.835 0H0V20.7657H99.835V0Z" fill="white"/>
</mask>
<g mask="url(#mask0_3784_15787)">
<path d="M94.7381 0.598267H98.6336L98.6835 0.648964L98.7343 11.8024L98.886 12.208L99.4426 12.4614V15.7061L99.1893 15.8075L98.0261 15.9596H97.4694L96.7113 15.8075L96.003 15.4526L95.6988 15.0977L95.4972 14.6921L95.3955 14.3373V14.0838H95.2947L95.193 14.3373L94.6364 14.9457L94.1816 15.3006L93.5745 15.6047L92.7146 15.8582L92.3604 15.9089H91.1969L90.1852 15.7061L89.2746 15.3006L88.617 14.8443L88.0099 14.2865L87.504 13.5768L87.0993 12.7656L86.8464 11.9545L86.6947 11.0927L86.644 10.2308L86.7453 9.16614L86.9476 8.25358L87.2512 7.49312L87.6559 6.78335L88.0099 6.32707L88.364 5.9215L88.8699 5.51592L89.5782 5.11034L90.3369 4.85685L90.944 4.75546H91.9052L92.6639 4.90755L93.3216 5.16103L93.9286 5.56662L94.4848 6.12429L94.6873 6.42848L94.7381 0.598267ZM92.7146 8.05079L92.1075 8.15219L91.6522 8.40567L91.298 8.70986L90.9946 9.21684L90.7922 9.72385L90.7416 10.028V10.7885L90.944 11.4475L91.2475 11.9038L91.6522 12.2587L92.2086 12.5122L92.7652 12.6136L93.3722 12.5629L93.878 12.36L94.2823 12.0559L94.6873 11.6503L94.7381 11.549V9.521L94.384 8.96334L94.131 8.65916L93.625 8.30428L93.1192 8.10149L92.7146 8.05079Z" fill="#393939"/>
<path d="M67.5725 4.75549H68.6855L69.6972 4.95828L70.5066 5.31316L71.1136 5.71874L71.7207 6.27641L72.2771 6.98618L72.6818 7.74664L72.9854 8.65919L73.1371 9.47035V11.1434L72.9854 12.056L72.6818 12.9685L72.2265 13.8303L71.7712 14.4387L71.2654 14.9457L70.6078 15.402L69.7984 15.7569L69.0395 15.9089H67.9267L67.1172 15.7569L66.3078 15.402L65.8525 15.0471L65.3467 14.5401L65.1444 14.2866V20.1168L65.0938 20.1675H61.1985L61.1479 20.0154V7.64524L61.1985 4.90758H64.5879L64.6385 6.4792L65.0938 5.92153L65.5996 5.46525L66.3078 5.05967L66.9149 4.85689L67.5725 4.75549ZM66.5102 8.10152L65.9032 8.35501L65.4479 8.70989L65.1444 9.06478L65.0938 10.3322L65.1444 11.0927L65.4985 11.7011L65.9538 12.1573L66.5608 12.5122L67.0667 12.6136L67.5725 12.5629L68.0784 12.3601L68.5842 11.9545L68.8878 11.4982L69.0901 10.8899L69.1408 10.6364V9.87594L68.9384 9.21687L68.5842 8.70989L68.2302 8.4057L67.6737 8.15222L67.4714 8.10152H66.5102Z" fill="#393939"/>
<path d="M54.167 4.75549H55.2799L56.1398 4.90758L56.7975 5.16107L57.4551 5.51595L57.961 5.92153L58.5681 6.5299L59.0739 7.29036L59.4281 8.05083L59.681 9.01407L59.7821 9.77457V10.8392L59.6304 11.9038L59.3774 12.7657L58.9728 13.6275L58.5175 14.2866L57.7587 15.0471L57.0504 15.5033L56.3928 15.7569L55.634 15.9089H54.5211L53.7623 15.7569L53.1047 15.5033L52.4976 15.0978L52.0424 14.6415L51.7894 14.2359L51.7388 20.1168L51.6882 20.1675H47.793V4.95828L47.8436 4.90758H51.1824L51.2329 4.95828L51.2835 6.42851L51.84 5.82014L52.2952 5.41456L52.8011 5.11037L53.5599 4.85689L54.167 4.75549ZM53.5599 8.05083L52.9529 8.15222L52.447 8.4057L51.9411 8.86198L51.7388 9.11547V11.0419L52.0424 11.5997L52.4976 12.1066L52.9529 12.4108L53.3575 12.5629L53.9141 12.6136L54.5211 12.4615L55.027 12.1066L55.3811 11.7011L55.6846 11.0419L55.7352 10.7885V9.77457L55.5328 9.16617L55.1787 8.65919L54.6728 8.30431L54.1164 8.10152L53.5599 8.05083Z" fill="#393939"/>
<path d="M0.493947 4.90759H3.7821L4.38916 4.95829L4.43974 5.05968V11.0419L4.54091 11.8024L4.79385 12.208V12.3094L4.9962 12.4108L5.24913 12.5122L5.80559 12.5629L6.46322 12.4108L7.01968 12.056L7.42437 11.5997L7.47496 4.95829L7.57614 4.90759H10.3078L11.4208 4.95829L11.4714 11.6504L11.5725 12.1067L11.8255 12.3094L12.1795 12.4108V15.7569L11.269 15.9089L10.7631 15.9596H10.1561L9.34669 15.8076L8.79023 15.5034L8.43612 15.0978L8.23377 14.6415L8.1326 14.1852H8.03142L7.27262 14.9457L6.61499 15.3513L5.85617 15.6554L4.94561 15.8583L4.54091 15.9089H3.27624L2.46684 15.7061L1.8598 15.402L1.25275 14.8443L0.848056 14.1852L0.595121 13.4248L0.493947 12.8671L0.443359 12.1067V4.95829L0.493947 4.90759Z" fill="#393939"/>
<path d="M79.3085 4.75549H80.6742L81.7872 4.90758L82.8495 5.26247L83.6589 5.71874L84.2154 6.17502L84.8224 6.78338L85.3283 7.54385L85.7329 8.50711L85.9354 9.36896L85.9859 9.82525V10.8392L85.8848 11.4982H78.2461L78.3979 12.1066L78.7014 12.5629L79.2072 12.867L79.6625 13.0192H80.6237L81.1295 12.867L81.6355 12.6136L81.9895 12.208L82.0908 12.0053L82.5966 12.1066L85.4295 12.9177L85.3283 13.222L84.9742 13.7289L84.5189 14.2359L83.9625 14.7428L83.3048 15.1484L82.5461 15.5033L81.7366 15.7569L80.7249 15.9089H79.2578L78.2967 15.7569L77.4873 15.5033L76.5262 15.0471L75.9191 14.5908L75.5144 14.2359L75.0591 13.6782L74.705 13.1206L74.3509 12.3601L74.0979 11.3968L74.0474 10.9912V9.82525L74.1991 8.96337L74.5026 8.05083L74.8568 7.34106L75.2615 6.78338L75.7168 6.27641L76.3238 5.76943L77.0826 5.31316L77.892 5.00898L78.8532 4.80619L79.3085 4.75549ZM79.7131 7.54385L79.2578 7.64524L78.8025 7.89873L78.4485 8.25361L78.1955 8.81128L78.1449 9.11547H81.7366L81.6861 8.70989L81.4837 8.30431L81.1802 7.94943L80.6742 7.64524L80.1684 7.54385H79.7131Z" fill="#393939"/>
<path d="M20.7793 4.75549H21.9935L22.7522 4.90758L23.4605 5.26247L23.9158 5.66804L24.2699 6.22571L24.5228 6.83408L24.6745 7.44246L24.7252 7.84803L24.7758 15.7061L24.7252 15.7569H20.8299L20.7793 9.87594L20.7288 9.16617L20.5264 8.70989L20.2735 8.4564L20.0205 8.30431L19.8182 8.25361H19.3629L18.9076 8.4057L18.3512 8.81128L17.9465 9.31826L17.7948 9.62241L17.7441 11.0927V15.7061L17.6935 15.7569H13.7983V4.90758H17.2888L17.3395 4.95828L17.39 6.42851L17.8453 5.92153L18.1994 5.61734L18.9076 5.21176L19.6158 4.95828L20.3241 4.80619L20.7793 4.75549Z" fill="#393939"/>
<path d="M39.3952 4.75549H40.9129L42.0764 4.90758L42.9363 5.16107L43.7458 5.56665L44.3022 5.97223L44.7575 6.42851L45.1622 7.08757L45.4151 7.69594L45.5669 8.4564L45.6175 9.16617L45.6681 11.8531L45.8198 12.208L46.3762 12.4615V15.7061L46.1233 15.8076L44.9598 15.9596H44.3022L43.4928 15.8076L43.0375 15.554L42.6834 15.1991L42.4305 14.6922L42.2787 14.0838L41.4188 14.9457L40.7105 15.402L40.0023 15.7061L39.4458 15.8582L39.0918 15.9089H37.9788L37.2706 15.7569L36.6635 15.5033L36.0565 15.1484L35.3989 14.4894L34.9942 13.7796L34.7918 13.1206L34.7412 12.3094L34.8424 11.6504L35.0953 10.9912L35.4495 10.4336L36.0565 9.82525L36.7141 9.41965L37.5235 9.06478L38.4846 8.86198L39.0411 8.81128H39.9011L40.9635 8.96337L41.5705 9.16617L41.6716 9.21687L41.5705 8.35501L41.3175 7.89873L41.0646 7.69594L40.6599 7.54385L39.8505 7.44246L39.0411 7.49315L38.1812 7.69594L37.2706 8.10152L36.5118 8.5578H36.36L35.5001 6.73269L35.2471 6.12432L36.1576 5.61734L36.9671 5.26247L37.7765 5.00898L38.8894 4.80619L39.3952 4.75549ZM39.5976 10.9912L38.9905 11.2448L38.687 11.4982L38.4846 11.9038V12.3094L38.6365 12.6136L39.0411 12.9685L39.3446 13.0699H40.2552L40.8622 12.867L41.3682 12.5629L41.6211 12.2587L41.6716 12.1066V11.2448L41.2669 11.0927L40.7611 10.9912H39.5976Z" fill="#393939"/>
<path d="M27.4064 1.46008H31.3016L31.3522 1.51078V4.90751H32.971L33.4768 4.9582V7.89865H31.3522L31.4028 11.7517L31.5545 12.0559L31.7569 12.2079L31.9087 12.2586H32.5663L33.4262 12.0052H33.6286L34.2862 14.9456L34.2357 15.1484L32.7181 15.6553L31.7064 15.8582L31.3016 15.9089H30.0875L29.3287 15.7568L28.7217 15.5033L28.317 15.1991L27.9122 14.7936L27.5076 13.9824L27.4064 13.4754L27.3558 12.6135V7.94936L26.0405 7.89865V4.9582L26.0911 4.90751H27.3052L27.3558 4.04565L27.4064 1.46008Z" fill="#393939"/>
</g>
</g>
<defs>
<clipPath id="clip0_3784_15787">
<rect width="99.9439" height="20.7431" fill="white"/>
</clipPath>
</defs>
</svg>
