<svg width="1242" height="213" viewBox="0 0 1242 213" fill="none" xmlns="http://www.w3.org/2000/svg">
<g opacity="0.8">
<path d="M232.972 114L209.697 213H147.917C135.849 167.7 99.6432 40.8 87 0H135.274L160.848 104.7C166.882 129 172.342 152.7 176.652 172.2H184.123C188.433 152.1 193.605 127.5 199.065 102.9L222.627 0H280.671L303.084 99C308.831 125.1 314.291 151.2 318.888 172.2H324.923C329.808 152.7 335.554 129 341.589 104.7L367.737 0H414C401.357 40.8 364.002 167.7 351.646 213H289.579L268.028 114.3C262.281 88.2 256.247 59.1 251.362 34.8C245.902 59.1 239.294 87.9 232.972 114Z" fill="#F5F5F5" fill-opacity="0.1"/>
<path d="M104.384 212.708H60.8008L0 0H43.584L104.384 212.708Z" fill="url(#paint0_linear_1399_997)" fill-opacity="0.4"/>
<path d="M1160.01 216.698C1099.6 216.698 1077.74 197.879 1077.74 134.295V125.741C1077.74 62.1565 1099.6 43.3379 1160.01 43.3379C1220.14 43.3379 1242 62.1565 1242 125.741V134.295C1242 197.879 1220.14 216.698 1160.01 216.698ZM1160.01 179.345C1189.93 179.345 1199.14 170.221 1199.14 130.873V129.162C1199.14 89.5291 1189.93 80.69 1160.01 80.69C1130.09 80.69 1120.89 89.5291 1120.89 129.162V130.873C1120.89 170.221 1130.09 179.345 1160.01 179.345Z" fill="#F5F5F5" fill-opacity="0.1"/>
<path d="M996.083 173.645V40.4886C996.083 23.6659 996.083 10.835 995.795 0H1038.95C1038.66 10.5498 1038.66 23.6659 1038.66 40.4886V173.36C1038.66 189.897 1038.66 201.588 1038.95 213.278H995.795C996.083 201.588 996.083 189.897 996.083 173.645Z" fill="#F5F5F5" fill-opacity="0.1"/>
<path d="M878.25 216.696C818.988 216.696 795.974 197.877 795.974 134.293V125.739C795.974 62.1546 818.988 43.3359 877.099 43.3359C934.923 43.3359 956.786 62.1546 956.786 125.739V140.28H839.125C840.852 173.071 850.92 181.054 878.538 181.054C907.881 181.054 914.785 173.356 914.785 155.107L956.786 156.248C956.786 200.158 938.662 216.696 878.25 216.696ZM877.099 74.9855C851.496 74.9855 841.427 81.8286 839.413 112.338H912.771C911.621 81.8286 903.566 74.9855 877.099 74.9855Z" fill="#F5F5F5" fill-opacity="0.1"/>
<path d="M626.936 173.645V40.4886C626.936 23.6659 626.936 10.835 626.649 0H669.8C669.513 10.5498 669.513 23.6659 669.513 40.4886V110.061H684.76C690.513 101.507 696.842 92.6676 704.034 83.5434L732.227 46.7615H782.283L782.571 47.3318C763.008 70.1422 738.843 101.222 719.281 126.028C740.282 153.115 766.461 188.472 786.598 212.708L786.31 213.278H735.391L703.459 170.794C697.418 162.24 691.376 153.971 685.91 145.702H669.513V173.36C669.513 189.897 669.513 201.588 669.8 213.278H626.649C626.936 201.873 626.936 189.897 626.936 173.645Z" fill="#F5F5F5" fill-opacity="0.1"/>
<path d="M505.449 216.698C445.036 216.698 423.173 197.879 423.173 134.295V125.741C423.173 62.1565 445.036 43.3379 505.449 43.3379C565.574 43.3379 587.438 62.1565 587.438 125.741V134.295C587.438 197.879 565.574 216.698 505.449 216.698ZM505.449 179.345C535.368 179.345 544.573 170.221 544.573 130.873V129.162C544.573 89.5291 535.368 80.69 505.449 80.69C475.53 80.69 466.325 89.5291 466.325 129.162V130.873C466.325 170.221 475.53 179.345 505.449 179.345Z" fill="#F5F5F5" fill-opacity="0.1"/>
</g>
<defs>
<linearGradient id="paint0_linear_1399_997" x1="94.3896" y1="1.96954" x2="-61.3087" y2="91.9118" gradientUnits="userSpaceOnUse">
<stop stop-color="#A1CCA5"/>
<stop offset="1" stop-color="#0C92B4"/>
</linearGradient>
</defs>
</svg>
